<svg width="18" height="17" viewBox="0 0 18 17" fill="none" xmlns="http://www.w3.org/2000/svg">
<mask id="mask0_414_4917" style="mask-type:luminance" maskUnits="userSpaceOnUse" x="2" y="1" width="15" height="13">
<path fill-rule="evenodd" clip-rule="evenodd" d="M2.25 1.18896H16.1227V13.0221H2.25V1.18896Z" fill="white"/>
</mask>
<g mask="url(#mask0_414_4917)">
<path fill-rule="evenodd" clip-rule="evenodd" d="M9.18525 2.21212C6.564 2.21212 4.737 4.07971 4.737 5.75564C4.737 7.17373 4.30425 7.82923 3.92175 8.40765C3.615 8.87216 3.37275 9.23913 3.37275 10.0365C3.498 11.323 4.43175 11.9989 9.18525 11.9989C13.9125 11.9989 14.8755 11.2929 15 9.99217C14.9977 9.23913 14.7555 8.87216 14.4487 8.40765C14.0662 7.82923 13.6335 7.17373 13.6335 5.75564C13.6335 4.07971 11.8065 2.21212 9.18525 2.21212ZM9.18526 13.0221C5.67826 13.0221 2.50876 12.797 2.25001 10.0802C2.24776 8.95606 2.62501 8.38446 2.95801 7.88107C3.29476 7.37085 3.61201 6.88997 3.61201 5.75564C3.61201 3.5504 5.85151 1.18896 9.18526 1.18896C12.519 1.18896 14.7585 3.5504 14.7585 5.75564C14.7585 6.88997 15.0758 7.37085 15.4125 7.88107C15.7455 8.38446 16.1228 8.95606 16.1228 10.0365C15.861 12.797 12.6923 13.0221 9.18526 13.0221Z" fill="#1D1617"/>
</g>
<path fill-rule="evenodd" clip-rule="evenodd" d="M9.14876 15.8542H9.14726C8.30651 15.8535 7.51076 15.5165 6.90701 14.9047C6.69926 14.6953 6.71801 14.3713 6.94901 14.183C7.18001 13.9934 7.53551 14.0105 7.74326 14.2212C8.13176 14.6148 8.63051 14.831 9.14801 14.831H9.14876C9.66851 14.831 10.1695 14.6148 10.5588 14.2205C10.7673 14.0111 11.1228 13.9941 11.353 14.183C11.584 14.372 11.6028 14.696 11.395 14.9054C10.789 15.5172 9.99176 15.8542 9.14876 15.8542Z" fill="#1D1617"/>
<circle cx="12.5" cy="3.00684" r="2.5" fill="#F7F8F8"/>
<circle cx="12.5" cy="3.00684" r="1.5" fill="#FF0000"/>
</svg>
