<svg width="50" height="50" viewBox="0 0 50 50" fill="none" xmlns="http://www.w3.org/2000/svg">
<circle opacity="0.3" cx="25" cy="25" r="25" fill="url(#paint0_linear_810_4241)"/>
<mask id="mask0_810_4241" style="mask-type:alpha" maskUnits="userSpaceOnUse" x="0" y="0" width="50" height="50">
<circle cx="25" cy="25" r="25" fill="#C4C4C4"/>
</mask>
<g mask="url(#mask0_810_4241)">
<g clip-path="url(#clip0_810_4241)">
<g opacity="0.3">
<path opacity="0.3" d="M17.2124 29.7039H17.1925L16.4284 29.4818C16.4022 29.4736 16.3802 29.4553 16.367 29.4307C16.3539 29.4061 16.3507 29.3773 16.3582 29.3504C16.3657 29.3234 16.3832 29.3006 16.407 29.2867C16.4307 29.2728 16.4589 29.2689 16.4855 29.276L17.2442 29.4953C17.2683 29.5034 17.2887 29.52 17.3017 29.5422C17.3146 29.5644 17.3193 29.5907 17.3147 29.6161C17.3102 29.6415 17.2968 29.6644 17.277 29.6806C17.2572 29.6967 17.2324 29.705 17.2071 29.7039H17.2124Z" fill="black"/>
<path opacity="0.3" d="M16.4284 30.3051C16.4068 30.3031 16.3863 30.2943 16.3697 30.2801C16.3531 30.2658 16.3412 30.2466 16.3356 30.2252C16.3314 30.2112 16.3301 30.1964 16.3317 30.1818C16.3334 30.1672 16.338 30.1531 16.3452 30.1404C16.3524 30.1277 16.3621 30.1167 16.3737 30.108C16.3853 30.0993 16.3985 30.0931 16.4125 30.0898L17.1766 29.8921C17.2031 29.8863 17.2308 29.8912 17.2539 29.9057C17.277 29.9203 17.2936 29.9434 17.3003 29.9703C17.307 29.9971 17.3032 30.0255 17.2898 30.0496C17.2764 30.0737 17.2544 30.0915 17.2284 30.0993L16.4629 30.297C16.452 30.3017 16.4403 30.3044 16.4284 30.3051Z" fill="black"/>
<path opacity="0.3" d="M16.8185 31.0256C16.7933 31.0231 16.7698 31.0116 16.7521 30.9931C16.7328 30.9731 16.7219 30.9461 16.7219 30.9179C16.7219 30.8898 16.7328 30.8628 16.7521 30.8428L17.3173 30.2809C17.3269 30.27 17.3386 30.2614 17.3516 30.2553C17.3646 30.2493 17.3787 30.2461 17.393 30.2458C17.4073 30.2456 17.4215 30.2483 17.4348 30.2539C17.448 30.2594 17.46 30.2677 17.4699 30.2781C17.4799 30.2886 17.4877 30.301 17.4928 30.3147C17.4979 30.3283 17.5002 30.3429 17.4996 30.3575C17.4989 30.3721 17.4954 30.3864 17.4891 30.3995C17.4829 30.4127 17.474 30.4243 17.4632 30.4339L16.9007 30.9985C16.8896 31.0086 16.8765 31.0162 16.8624 31.0209C16.8482 31.0255 16.8333 31.0271 16.8185 31.0256Z" fill="black"/>
<path opacity="0.3" d="M17.5042 31.4519H17.4843C17.4707 31.448 17.4581 31.4414 17.4471 31.4324C17.4361 31.4235 17.427 31.4123 17.4203 31.3997C17.4136 31.3871 17.4095 31.3732 17.4082 31.3589C17.4069 31.3446 17.4084 31.3302 17.4126 31.3165L17.6222 30.5419C17.6302 30.5152 17.6482 30.4927 17.6723 30.4793C17.6964 30.4659 17.7246 30.4627 17.751 30.4703C17.7774 30.4779 17.7998 30.4958 17.8134 30.52C17.827 30.5443 17.8308 30.5731 17.8239 30.6002L17.609 31.3747C17.6025 31.3977 17.5886 31.4178 17.5696 31.4317C17.5506 31.4457 17.5276 31.4528 17.5042 31.4519Z" fill="black"/>
</g>
<path d="M38.2281 19.4277L36.3272 20.5448L32.1644 21.1595C32.1644 21.1595 29.1252 16.4989 28.6596 15.7663C28.194 15.0338 27.6488 14.5639 26.3872 14.5652L26.626 18.2835C26.6658 18.404 29.1823 21.5685 30.8418 23.2935C31.4282 23.9015 31.7877 24.0572 32.699 23.7972C35.0377 23.1351 37.8726 21.1731 38.1008 20.6829C38.4072 20.0424 38.2056 19.4412 38.2281 19.4277Z" fill="#FFEDE5"/>
<path d="M37.4463 17.0705C37.6957 16.2391 38.7145 15.5621 39.6603 15.8329C39.8101 15.8752 39.9538 15.9376 40.0875 16.0184C41.0161 16.5601 41.755 17.8803 41.755 18.9662C41.758 19.1496 41.733 19.3324 41.6807 19.5078C41.4326 20.3379 40.4165 21.0203 39.4667 20.7482C39.3171 20.7053 39.1735 20.643 39.0395 20.5627C38.1189 20.021 37.372 18.6995 37.372 17.6135C37.3693 17.4297 37.3944 17.2466 37.4463 17.0705Z" fill="#455A64"/>
<path d="M39.041 20.5545C38.1204 20.0128 37.3735 18.6913 37.3735 17.6053C37.3735 16.5193 38.1204 16.0806 39.041 16.6223C39.9617 17.1639 40.7045 18.4841 40.7045 19.5701C40.7045 20.656 39.9617 21.0961 39.041 20.5545Z" fill="#37474F"/>
<path d="M39.041 17.826C38.6868 17.6175 38.3989 17.7868 38.3989 18.2038C38.411 18.4312 38.4754 18.6524 38.587 18.8496C38.6985 19.0467 38.8541 19.2142 39.041 19.3385C39.3952 19.547 39.6817 19.3778 39.6817 18.9607C39.6699 18.7335 39.6057 18.5123 39.4944 18.3151C39.3831 18.1179 39.2277 17.9504 39.041 17.826Z" fill="#455A64"/>
<path d="M38.8209 18.4532C38.8251 18.5311 38.8473 18.6068 38.8855 18.6743C38.9238 18.7418 38.9771 18.7992 39.0411 18.8418C39.0621 18.8573 39.0866 18.8672 39.1122 18.8707C39.1379 18.8743 39.1641 18.8713 39.1883 18.8621L39.2043 18.8526C39.2232 18.836 39.2381 18.8152 39.2478 18.7917C39.2575 18.7682 39.2617 18.7427 39.26 18.7172C39.2558 18.6395 39.2338 18.5639 39.1958 18.4964C39.1578 18.4289 39.1048 18.3714 39.0411 18.3286C39.0201 18.3132 38.9956 18.3032 38.97 18.2997C38.9443 18.2961 38.9181 18.2991 38.8939 18.3083L38.8779 18.3178C38.8586 18.3342 38.8434 18.355 38.8335 18.3785C38.8236 18.402 38.8193 18.4276 38.8209 18.4532Z" fill="#37474F"/>
<path d="M35.2987 20.529C35.3028 20.6067 35.3248 20.6824 35.3628 20.7499C35.4008 20.8174 35.4539 20.8748 35.5176 20.9176C35.5461 20.9364 35.5792 20.9467 35.6131 20.9474C35.6389 20.9468 35.6641 20.9394 35.6861 20.9257L39.1882 18.8621L39.2041 18.8526C39.2231 18.836 39.238 18.8152 39.2477 18.7917C39.2574 18.7682 39.2615 18.7427 39.2599 18.7172C39.2557 18.6395 39.2337 18.5639 39.1957 18.4964C39.1576 18.4289 39.1047 18.3714 39.041 18.3286C39.02 18.3132 38.9955 18.3032 38.9698 18.2997C38.9442 18.2961 38.918 18.2991 38.8937 18.3083L38.8778 18.3178L35.3757 20.3814C35.3505 20.3961 35.33 20.4177 35.3164 20.4438C35.3028 20.47 35.2967 20.4995 35.2987 20.529Z" fill="#FAFAFA"/>
<path d="M31.8618 20.3624C32.1099 19.5324 33.126 18.8459 34.0758 19.118C34.2258 19.1611 34.3697 19.2234 34.5043 19.3035C35.4249 19.8451 36.1718 21.1667 36.1718 22.2527C36.1741 22.436 36.149 22.6186 36.0975 22.7943C35.8481 23.6243 34.8333 24.3068 33.8835 24.036C33.734 23.9929 33.5904 23.9305 33.4563 23.8505C32.5357 23.3088 31.7888 21.9873 31.7888 20.9027C31.7858 20.7198 31.8104 20.5376 31.8618 20.3624Z" fill="#455A64"/>
<path d="M33.4548 23.845C32.5342 23.3033 31.7874 21.9818 31.7874 20.8972C31.7874 19.8126 32.5342 19.3711 33.4548 19.9128C34.3755 20.4544 35.1223 21.7759 35.1223 22.8619C35.1223 23.9479 34.3768 24.3879 33.4548 23.845Z" fill="#37474F"/>
<path d="M33.4547 21.1139C33.1005 20.904 32.814 21.0733 32.814 21.4917C32.826 21.7187 32.8902 21.9397 33.0016 22.1366C33.1129 22.3335 33.2681 22.5009 33.4547 22.6251C33.8089 22.8336 34.0968 22.6643 34.0968 22.2473C34.0845 22.0202 34.02 21.7992 33.9084 21.6023C33.7969 21.4054 33.6414 21.238 33.4547 21.1139Z" fill="#455A64"/>
<path d="M33.2359 21.7432C33.24 21.821 33.262 21.8967 33.3 21.9642C33.338 22.0317 33.3911 22.0891 33.4548 22.1318C33.4758 22.1473 33.5003 22.1572 33.5259 22.1608C33.5516 22.1643 33.5778 22.1614 33.6021 22.1522C33.6079 22.1501 33.6133 22.1469 33.618 22.1427C33.6372 22.1262 33.6524 22.1054 33.6623 22.0819C33.6722 22.0584 33.6765 22.0328 33.675 22.0073C33.6707 21.9294 33.6485 21.8537 33.6102 21.7862C33.572 21.7187 33.5187 21.6613 33.4548 21.6187C33.4338 21.6036 33.4096 21.5941 33.3841 21.5908C33.3587 21.5875 33.3329 21.5905 33.3089 21.5997L33.293 21.6092C33.2737 21.6253 33.2585 21.6458 33.2486 21.6692C33.2386 21.6925 33.2343 21.7179 33.2359 21.7432Z" fill="#37474F"/>
<path d="M32.7052 22.0618C32.709 22.1396 32.7308 22.2154 32.7689 22.2829C32.8069 22.3505 32.8601 22.4079 32.9241 22.4504C32.9526 22.4691 32.9857 22.4795 33.0196 22.4802C33.0454 22.4795 33.0705 22.472 33.0926 22.4585L33.602 22.1579C33.6079 22.1558 33.6133 22.1526 33.6179 22.1484C33.6371 22.132 33.6523 22.1111 33.6622 22.0876C33.6721 22.0641 33.6765 22.0386 33.675 22.013C33.6706 21.9352 33.6484 21.8594 33.6102 21.792C33.5719 21.7245 33.5187 21.6671 33.4547 21.6244C33.4338 21.6094 33.4095 21.5998 33.3841 21.5965C33.3587 21.5932 33.3328 21.5963 33.3088 21.6054L33.2929 21.6149L32.7822 21.9142C32.757 21.9289 32.7365 21.9505 32.7229 21.9766C32.7093 22.0028 32.7031 22.0323 32.7052 22.0618Z" fill="#FAFAFA"/>
<path d="M32.7052 22.0615C32.7091 22.1395 32.731 22.2155 32.769 22.2832C32.8071 22.351 32.8602 22.4086 32.9241 22.4515C32.9454 22.4665 32.9698 22.4761 32.9955 22.4794C33.0211 22.4827 33.0471 22.4796 33.0714 22.4705L33.0873 22.461C33.1067 22.4447 33.1219 22.4239 33.1319 22.4003C33.1418 22.3768 33.1461 22.3512 33.1443 22.3256C33.1399 22.2476 33.1176 22.1717 33.0794 22.104C33.0412 22.0363 32.988 21.9787 32.9241 21.9356C32.9029 21.9206 32.8784 21.911 32.8528 21.9077C32.8271 21.9044 32.8011 21.9075 32.7769 21.9167L32.761 21.9261C32.7419 21.9427 32.7269 21.9635 32.7173 21.987C32.7076 22.0106 32.7035 22.0361 32.7052 22.0615Z" fill="#E0E0E0"/>
<path d="M37.0128 21.6361C37.818 21.0092 38.5901 21.0133 38.4508 19.4805C38.3327 18.8034 38.1682 18.7547 37.5222 18.4974C37.2383 18.385 36.8589 18.2997 36.6321 18.5651C36.6072 18.5985 36.5797 18.6297 36.5498 18.6586C36.4829 18.7021 36.4062 18.7272 36.327 18.7317C36.1757 18.7392 36.0319 18.8011 35.921 18.9063C35.8454 18.9944 35.8162 19.1149 35.7419 19.2029C35.6706 19.2719 35.5938 19.3348 35.5125 19.3911C35.4541 19.4427 35.4071 19.5063 35.3744 19.5777C35.3418 19.6491 35.3241 19.7267 35.3228 19.8054C35.3281 19.8955 35.3527 19.9833 35.3949 20.0626C35.4371 20.1419 35.4958 20.2108 35.5668 20.2645L35.9728 20.0262C36.1386 19.9097 36.4808 20.3254 36.3336 20.5448C36.0988 20.8941 37.0128 21.6361 37.0128 21.6361Z" fill="#FFEDE5"/>
<path d="M27.6342 24.718C27.8916 23.6564 27.9658 21.0038 27.9658 21.0038L20.4336 21.234L20.8435 22.9089C20.9111 23.2865 20.9471 23.6693 20.951 24.0531C20.951 24.0531 21.6819 25.4356 23.8495 25.678C25.1814 25.8076 26.5167 25.4689 27.6342 24.718Z" fill="#FFEDE5"/>
<path d="M27.9697 21.004C27.979 21.088 27.9259 21.8909 27.9259 21.8909C26.9628 22.7183 23.8732 23.1367 20.6298 22.0358L19.9426 19.3277C19.9426 19.3277 22.2747 18.2824 20.6988 14.7753L22.3928 14.6399L25.4001 14.5627H26.3871C27.1986 15.3675 27.8845 16.2945 28.4207 17.3115C28.8147 18.0616 29.3161 19.1611 27.9697 21.004Z" fill="#455A64"/>
<path d="M23.7075 21.0283C22.3504 20.6749 22.0108 19.8097 21.914 19.1733C21.914 19.1733 21.658 21.0283 23.5974 21.4603C25.643 21.9153 26.484 20.2619 26.484 20.2619C26.484 20.2619 25.3445 21.4549 23.7075 21.0283Z" fill="#37474F"/>
<path d="M12.1557 41.6708C11.7577 41.9673 10.8411 42.0391 10.0332 41.6518C9.22531 41.2646 8.88837 40.1624 9.03959 39.3107C9.22266 38.2721 9.72543 37.7047 9.85278 37.0792C9.98013 36.4536 9.85278 35.5897 10.0465 35.0318C10.1263 34.8174 10.2506 34.6231 10.4109 34.4623C10.5712 34.3015 10.7636 34.178 10.9751 34.1002C11.1098 34.0471 11.2548 34.0261 11.3987 34.039C11.5427 34.052 11.6818 34.0984 11.8055 34.1747L12.0443 34.3182L12.1557 41.6708Z" fill="#263238"/>
<path d="M13.104 37.7103L12.4752 39.6357C12.4752 39.6357 12.8732 41.0088 12.649 41.3744C12.3187 41.916 11.7363 42.0108 10.756 41.7048C9.63506 41.3568 9.37107 40.3209 9.42944 39.5166C9.50904 38.3697 10.5477 37.5072 10.4283 36.4022C10.37 35.8606 10.4429 35.2554 10.7335 34.7896C11.0585 34.2696 11.5917 34.1721 12.1449 34.3414C12.6198 34.4876 13.0364 34.7923 13.4383 35.078C13.5537 35.1529 13.6582 35.2441 13.7487 35.3488C13.8208 35.4468 13.8747 35.5574 13.9079 35.6751C13.9807 35.9117 14.0024 36.1616 13.9716 36.4077C13.9424 36.6378 13.7978 36.7719 13.6638 36.9493L13.104 37.7103Z" fill="url(#paint1_linear_810_4241)"/>
<path d="M15.8143 36.799C15.7759 36.7842 13.855 35.5303 13.648 35.4355C13.4411 35.3407 12.9317 35.2067 12.4395 36.3698C12.088 37.1971 12.5934 37.5032 12.5934 37.5032L14.8486 38.8708L15.8143 36.799Z" fill="#FFEDE5"/>
<path d="M12.4753 39.6359C12.0689 39.4285 11.619 39.3258 11.1647 39.3366C11.131 39.3398 11.097 39.3346 11.0657 39.3213C11.0345 39.3079 11.0069 39.287 10.9854 39.2602C10.9639 39.2335 10.9492 39.2018 10.9425 39.1679C10.9359 39.134 10.9374 39.0989 10.9471 39.0658C10.9599 39.0263 10.9839 38.9916 11.016 38.9661C11.0481 38.9405 11.0869 38.9253 11.1276 38.9223C11.4313 38.8979 12.1689 38.8884 12.6584 39.3001C12.7884 39.5682 12.4753 39.6359 12.4753 39.6359Z" fill="url(#paint2_linear_810_4241)"/>
<path d="M12.7064 38.7556C12.3111 38.5271 11.867 38.4011 11.413 38.3886C11.3788 38.3903 11.3447 38.3834 11.3138 38.3684C11.2829 38.3533 11.2561 38.3307 11.2359 38.3025C11.2156 38.2744 11.2025 38.2415 11.1978 38.2069C11.1931 38.1723 11.1968 38.137 11.2087 38.1043C11.2233 38.0654 11.2489 38.0318 11.2822 38.0077C11.3154 37.9836 11.355 37.9701 11.3957 37.9688C11.7008 37.9607 12.4384 37.9919 12.9067 38.4279C13.0221 38.7055 12.7064 38.7556 12.7064 38.7556Z" fill="url(#paint3_linear_810_4241)"/>
<path opacity="0.3" d="M12.4753 39.6359C12.0689 39.4285 11.619 39.3258 11.1647 39.3366C11.131 39.3398 11.097 39.3346 11.0657 39.3213C11.0345 39.3079 11.0069 39.287 10.9854 39.2602C10.9639 39.2335 10.9492 39.2018 10.9425 39.1679C10.9359 39.134 10.9374 39.0989 10.9471 39.0658C10.9599 39.0263 10.9839 38.9916 11.016 38.9661C11.0481 38.9405 11.0869 38.9253 11.1276 38.9223C11.4313 38.8979 12.1689 38.8884 12.6584 39.3001C12.7884 39.5682 12.4753 39.6359 12.4753 39.6359Z" fill="black"/>
<path opacity="0.3" d="M12.7064 38.7556C12.3111 38.5271 11.867 38.4011 11.413 38.3886C11.3788 38.3903 11.3447 38.3834 11.3138 38.3684C11.2829 38.3533 11.2561 38.3307 11.2359 38.3025C11.2156 38.2744 11.2025 38.2415 11.1978 38.2069C11.1931 38.1723 11.1968 38.137 11.2087 38.1043C11.2233 38.0654 11.2489 38.0318 11.2822 38.0077C11.3154 37.9836 11.355 37.9701 11.3957 37.9688C11.7008 37.9607 12.4384 37.9919 12.9067 38.4279C13.0221 38.7055 12.7064 38.7556 12.7064 38.7556Z" fill="black"/>
<path d="M32.2823 41.8796L34.7776 40.8694C34.7351 40.2127 34.576 39.338 34.7418 37.6197L31.9109 37.0699V39.9622L32.2823 41.8796Z" fill="#FFEDE5"/>
<path d="M39.4021 44.1162C39.4684 44.3213 39.4561 44.5443 39.3676 44.7404C39.2827 44.9232 38.3475 45.4608 37.0859 45.3741C36.1504 45.3072 35.2495 44.9861 34.4766 44.4439C33.9963 44.1189 33.4949 44.058 32.8714 44.0214C32.2479 43.9849 31.4255 43.6667 31.2888 43.3688C31.1522 43.0709 31.3101 42.5563 31.3101 42.5563L39.4021 44.1162Z" fill="#263238"/>
<path d="M34.3118 40.0974L34.4113 40.0757C34.4654 40.0609 34.5219 40.0581 34.5771 40.0676C34.6384 40.0869 34.6928 40.1241 34.7337 40.1745C34.8571 40.3352 34.9647 40.508 35.0547 40.6904C35.32 41.1305 35.8745 41.4961 36.4807 41.8278C36.8933 42.054 37.2966 42.2341 37.7224 42.425C38.1482 42.6159 38.7319 42.7459 39.0715 42.9801C39.5663 43.32 39.6313 44.1758 39.0715 44.513C38.586 44.8054 37.3059 45.1209 35.9634 44.7323C35.2311 44.5211 34.4193 43.7235 33.4601 43.6491C32.8499 43.6003 31.6945 43.4256 31.3018 42.9531C31.1572 42.7432 31.3509 42.077 31.5101 41.5029C31.6839 40.8759 31.7476 39.771 31.9518 39.8265C31.9518 39.8265 31.8961 39.9823 31.9757 40.0662C32.0553 40.1502 32.3352 40.3181 32.4175 40.3885C32.555 40.5317 32.666 40.6991 32.7451 40.8827C32.778 40.9656 32.8393 41.0335 32.9176 41.0736C33.0211 41.1129 33.098 41.0465 33.1829 41.0046C33.2977 40.9521 33.427 40.943 33.5477 40.9788C33.5361 40.8545 33.5143 40.7313 33.4827 40.6105C33.4691 40.5724 33.4659 40.5312 33.4734 40.4914C33.4901 40.4542 33.5174 40.4231 33.5517 40.402C33.7814 40.2473 34.0404 40.1436 34.3118 40.0974Z" fill="url(#paint4_linear_810_4241)"/>
<path d="M35.9106 41.4896C35.9106 41.4896 35.823 41.2499 35.4609 41.1822C35.1823 41.1294 34.6915 41.3379 34.3864 41.5884C34.3577 41.6126 34.3351 41.6436 34.3208 41.6786C34.3064 41.7137 34.3006 41.7517 34.3039 41.7896C34.3071 41.8274 34.3194 41.8639 34.3395 41.8959C34.3597 41.9278 34.3871 41.9543 34.4195 41.973C34.4612 41.9973 34.5093 42.0075 34.5569 42.0021C34.6046 41.9968 34.6494 41.9761 34.6848 41.9432C35.0207 41.6361 35.4599 41.4735 35.9106 41.4896Z" fill="url(#paint5_linear_810_4241)"/>
<path d="M36.7712 41.9811C36.7111 41.8945 36.6316 41.8239 36.5393 41.7752C36.447 41.7264 36.3445 41.7009 36.2406 41.7008C36.2406 41.7008 35.515 41.7225 35.0653 42.149C35.0379 42.1725 35.0164 42.2024 35.0028 42.2362C34.9891 42.2699 34.9836 42.3066 34.9867 42.343C34.9898 42.3794 35.0015 42.4144 35.0207 42.4453C35.0399 42.4761 35.0661 42.5017 35.0971 42.52C35.1365 42.5424 35.1818 42.5515 35.2265 42.5462C35.2713 42.5408 35.3132 42.5212 35.3465 42.4902C35.5317 42.3022 35.7558 42.1589 36.0023 42.0708C36.2489 41.9827 36.5116 41.952 36.7712 41.9811Z" fill="url(#paint6_linear_810_4241)"/>
<path d="M37.7225 42.4253C37.6533 42.345 37.568 42.2808 37.4723 42.2371C37.3766 42.1934 37.2728 42.1712 37.168 42.1721C37.168 42.1721 36.4915 42.1978 36.0431 42.6243C36.0154 42.6476 35.9936 42.6774 35.9796 42.7111C35.9657 42.7448 35.9599 42.7815 35.9629 42.818C35.9659 42.8545 35.9776 42.8897 35.9969 42.9206C36.0161 42.9515 36.0425 42.9772 36.0736 42.9954C36.1133 43.0176 36.1587 43.0267 36.2037 43.0214C36.2486 43.016 36.2908 42.9965 36.3243 42.9656C36.5001 42.7707 36.7181 42.6203 36.9608 42.5265C37.2035 42.4327 37.4644 42.3981 37.7225 42.4253Z" fill="url(#paint7_linear_810_4241)"/>
<path opacity="0.3" d="M35.9106 41.4896C35.9106 41.4896 35.823 41.2499 35.4609 41.1822C35.1823 41.1294 34.6915 41.3379 34.3864 41.5884C34.3577 41.6126 34.3351 41.6436 34.3208 41.6786C34.3064 41.7137 34.3006 41.7517 34.3039 41.7896C34.3071 41.8274 34.3194 41.8639 34.3395 41.8959C34.3597 41.9278 34.3871 41.9543 34.4195 41.973C34.4612 41.9973 34.5093 42.0075 34.5569 42.0021C34.6046 41.9968 34.6494 41.9761 34.6848 41.9432C35.0207 41.6361 35.4599 41.4735 35.9106 41.4896Z" fill="black"/>
<path opacity="0.3" d="M36.7712 41.9811C36.7111 41.8945 36.6316 41.8239 36.5393 41.7752C36.447 41.7264 36.3445 41.7009 36.2406 41.7008C36.2406 41.7008 35.515 41.7225 35.0653 42.149C35.0379 42.1725 35.0164 42.2024 35.0028 42.2362C34.9891 42.2699 34.9836 42.3066 34.9867 42.343C34.9898 42.3794 35.0015 42.4144 35.0207 42.4453C35.0399 42.4761 35.0661 42.5017 35.0971 42.52C35.1365 42.5424 35.1818 42.5515 35.2265 42.5462C35.2713 42.5408 35.3132 42.5212 35.3465 42.4902C35.5317 42.3022 35.7558 42.1589 36.0023 42.0708C36.2489 41.9827 36.5116 41.952 36.7712 41.9811Z" fill="black"/>
<path opacity="0.3" d="M37.7225 42.4253C37.6533 42.345 37.568 42.2808 37.4723 42.2371C37.3766 42.1934 37.2728 42.1712 37.168 42.1721C37.168 42.1721 36.4915 42.1978 36.0431 42.6243C36.0154 42.6476 35.9936 42.6774 35.9796 42.7111C35.9657 42.7448 35.9599 42.7815 35.9629 42.818C35.9659 42.8545 35.9776 42.8897 35.9969 42.9206C36.0161 42.9515 36.0425 42.9772 36.0736 42.9954C36.1133 43.0176 36.1587 43.0267 36.2037 43.0214C36.2486 43.016 36.2908 42.9965 36.3243 42.9656C36.5001 42.7707 36.7181 42.6203 36.9608 42.5265C37.2035 42.4327 37.4644 42.3981 37.7225 42.4253Z" fill="black"/>
<path d="M33.9883 27.3544C32.0913 26.9198 27.5611 25.953 27.5611 25.953L27.6341 24.7181C25.9958 25.5847 22.5427 25.3396 20.9508 24.0532L20.7001 25.3626C20.0966 26.1002 19.5739 26.9029 19.1414 27.7566C18.7779 28.4918 18.1704 29.6387 18.7753 32.3103C19.1308 33.8797 19.6044 38.0109 19.6044 38.0109L14.9614 36.2642C14.9614 36.2642 14.5634 36.3332 14.2265 37.2215C14.0275 37.7469 13.9612 38.2519 14.1628 38.5133C15.8608 39.8822 18.6121 42.1178 21.3926 43.3716C23.2498 44.0974 24.2367 42.5037 24.327 41.9133C24.6758 39.652 25.0778 32.3861 25.0778 32.3861L31.2861 32.1844C31.0805 33.3841 31.9162 38.0718 31.9162 38.0718C31.9162 38.0718 33.4444 38.7489 34.71 38.0556C34.71 38.0556 35.5563 32.661 35.6386 30.8614C35.7221 28.8547 35.823 27.7755 33.9883 27.3544Z" fill="url(#paint8_linear_810_4241)"/>
<path opacity="0.15" d="M31.286 32.1845C31.286 31.8609 31.497 30.7302 32.2146 30.1277C32.2146 30.1277 31.2303 30.3078 30.7793 32.2008L31.286 32.1845Z" fill="black"/>
<path opacity="0.15" d="M19.6042 38.011C19.6042 38.011 19.7369 39.7944 20.0712 40.6637C20.0712 40.6637 19.2341 39.12 19.1426 37.835L19.6042 38.011Z" fill="black"/>
<path opacity="0.15" d="M27.5598 25.9531L27.6327 24.7196C25.9944 25.5848 22.5427 25.3398 20.9521 24.0547L20.7014 25.3628C20.7147 25.375 21.7361 26.4528 24.3919 26.5923C27.0477 26.7317 27.5598 25.9531 27.5598 25.9531Z" fill="black"/>
<path opacity="0.15" d="M25.0829 32.3861C25.061 31.7159 24.9057 31.0572 24.6265 30.4501C24.3474 29.8431 23.9503 29.3003 23.4592 28.8547C23.4592 28.8547 24.8866 29.5318 25.3642 31.6753C25.3642 31.6753 26.4254 31.1702 26.9799 29.6563C26.9799 29.6563 26.8101 31.1702 25.9558 32.0314L28.5307 32.2737L25.0829 32.3861Z" fill="black"/>
<path d="M24.2553 5.00025C23.7103 4.99936 23.1704 5.10814 22.6666 5.32038C22.1628 5.53261 21.705 5.84414 21.3192 6.23713C20.9334 6.63013 20.6274 7.09689 20.4185 7.61072C20.2096 8.12456 20.102 8.67538 20.1018 9.2317C20.1018 9.78813 20.2093 10.3391 20.4181 10.8531C20.6269 11.3671 20.933 11.834 21.3187 12.2271C21.7045 12.6203 22.1624 12.9319 22.6663 13.1442C23.1702 13.3566 23.7102 13.4654 24.2553 13.4645C25.3538 13.4627 26.4067 13.0159 27.1828 12.2223C27.9588 11.4286 28.3945 10.353 28.3942 9.2317C28.3942 8.11062 27.9583 7.03536 27.1823 6.242C26.4063 5.44865 25.3536 5.00204 24.2553 5.00025Z" fill="#263238"/>
<path d="M19.9241 7.57291C20.074 7.56591 20.2243 7.57453 20.3725 7.59864C20.4227 7.60201 20.4699 7.62419 20.5051 7.66093C20.5256 7.69131 20.5371 7.72701 20.5383 7.76384C20.5725 7.99892 20.5512 8.23896 20.4759 8.46389C20.4176 8.62096 20.2358 8.70085 20.1204 8.81459C19.672 9.25872 19.6362 9.99398 19.8127 10.6047C19.9891 11.2153 20.3433 11.7597 20.5728 12.35C20.8023 12.9404 20.9243 13.6513 20.5993 14.2457C20.4733 14.4732 20.2438 14.652 20.2717 14.9228C20.3035 15.2545 20.5874 15.5714 20.7094 15.8706C20.8434 16.2251 20.889 16.6081 20.8421 16.985C20.8085 17.4537 20.638 17.9013 20.3526 18.27C20.1344 18.5295 19.8528 18.7254 19.5363 18.8377C19.2199 18.9499 18.8799 18.9746 18.5511 18.9091C18.4125 18.8844 18.2813 18.8274 18.1677 18.7426C17.9727 18.5828 17.8945 18.3215 17.7883 18.0899C17.4474 17.3411 16.7271 16.7968 16.5082 16.002C16.2707 15.1557 16.6661 14.2755 17.1516 13.5565C17.3784 13.2207 17.6318 12.8917 17.7432 12.499C17.8931 11.9696 17.7618 11.4063 17.7273 10.8552C17.6944 10.3168 17.755 9.77683 17.9064 9.26008C18.0152 8.88635 18.1836 8.45576 18.4689 8.18766C18.8691 7.81621 19.3837 7.59882 19.9241 7.57291Z" fill="#263238"/>
<path d="M26.8475 6.93652C27.3011 7.21411 27.8596 8.38537 27.7946 10.8362C27.7389 12.9134 27.077 13.4238 26.7453 13.5714C26.4137 13.719 25.7743 13.6242 25.1534 13.5159V14.763C25.1534 14.763 26.0077 15.784 25.9494 16.3567C25.891 16.9295 24.7077 17.0581 23.9065 16.4921C23.1052 15.9261 22.4327 14.8388 22.4327 14.8388L22.4592 11.9709C22.4592 11.9709 22.0891 12.3365 21.4696 11.7814C20.9615 11.3223 20.7917 10.5519 21.1923 10.1457C21.5929 9.73943 22.3292 9.84911 22.6104 10.4395C22.6104 10.4395 23.6 10.4801 24.9226 9.7462C25.4371 9.46514 25.8795 9.06429 26.214 8.57613C26.5484 8.08798 26.7654 7.52627 26.8475 6.93652Z" fill="#FFEDE5"/>
<path d="M25.5235 10.3053C25.5238 10.3567 25.5092 10.4069 25.4816 10.4499C25.454 10.4928 25.4146 10.5265 25.3684 10.5467C25.3222 10.5669 25.2712 10.5728 25.2217 10.5636C25.1722 10.5544 25.1265 10.5306 25.0902 10.495C25.0539 10.4595 25.0287 10.4138 25.0177 10.3637C25.0067 10.3136 25.0104 10.2614 25.0283 10.2134C25.0462 10.1654 25.0776 10.1239 25.1185 10.094C25.1593 10.0641 25.208 10.0472 25.2582 10.0453C25.3268 10.0453 25.3927 10.0723 25.4422 10.1208C25.4916 10.1693 25.5208 10.2354 25.5235 10.3053Z" fill="#263238"/>
<g style="mix-blend-mode:multiply" opacity="0.5">
<g style="mix-blend-mode:multiply" opacity="0.5">
<path d="M25.582 12.0672L26.175 12.2622C26.1642 12.3028 26.1455 12.3408 26.12 12.3739C26.0945 12.407 26.0627 12.4344 26.0265 12.4547C25.9903 12.4749 25.9505 12.4875 25.9095 12.4916C25.8684 12.4958 25.827 12.4914 25.7876 12.4788C25.7077 12.451 25.6415 12.3924 25.6031 12.3156C25.5647 12.2387 25.5572 12.1496 25.582 12.0672Z" fill="#F28F8F"/>
</g>
</g>
<path d="M27.6261 9.51208L27.1101 9.14378C27.1317 9.10811 27.1603 9.07733 27.194 9.05335C27.2277 9.02936 27.2658 9.01266 27.3061 9.00429C27.3464 8.99592 27.3879 8.99605 27.4281 9.00467C27.4683 9.01329 27.5064 9.03021 27.5399 9.05441C27.6085 9.10532 27.6555 9.18091 27.6715 9.26588C27.6875 9.35085 27.6713 9.43885 27.6261 9.51208Z" fill="#263238"/>
<path d="M27.504 10.124C27.5045 10.1754 27.4901 10.2258 27.4627 10.2689C27.4353 10.312 27.396 10.3459 27.3498 10.3664C27.3036 10.3868 27.2525 10.3929 27.203 10.3838C27.1534 10.3748 27.1076 10.3511 27.0711 10.3156C27.0347 10.2801 27.0094 10.2344 26.9983 10.1843C26.9871 10.1342 26.9908 10.0818 27.0086 10.0338C27.0265 9.98574 27.0579 9.94414 27.0988 9.9142C27.1397 9.88425 27.1884 9.86728 27.2387 9.86542C27.307 9.86535 27.3728 9.8922 27.4222 9.94038C27.4716 9.98856 27.5009 10.0544 27.504 10.124Z" fill="#263238"/>
<g style="mix-blend-mode:multiply" opacity="0.5">
<g style="mix-blend-mode:multiply" opacity="0.5">
<path d="M26.2969 9.96954L26.3314 11.543L27.1432 11.2898L26.2969 9.96954Z" fill="#F28F8F"/>
</g>
</g>
<g style="mix-blend-mode:multiply" opacity="0.5">
<g style="mix-blend-mode:multiply" opacity="0.5">
<path d="M25.1547 13.5161C24.4993 13.4268 23.1542 13.026 22.9473 12.4816C23.0306 12.7567 23.1945 12.9991 23.4169 13.1763C23.8175 13.531 25.152 13.9372 25.152 13.9372L25.1547 13.5161Z" fill="#F28F8F"/>
</g>
</g>
<path d="M20.6987 14.7766C19.4146 14.87 18.8853 15.0366 18.1703 16.6561C17.5269 18.1117 15.9881 21.8787 15.6034 22.7182C15.2187 23.5577 15.1457 23.8949 15.4707 24.7737C15.7361 25.49 17.9037 29.605 18.1411 30.2048C18.3786 30.8047 18.4834 31.4113 18.888 32.11C19.2926 32.8087 19.932 33.4911 20.4374 33.6523C21.1869 33.8919 22.1619 33.5588 22.1898 33.0971C22.2177 32.6354 21.0901 31.8649 20.7836 30.8399C20.9876 30.9766 21.2023 31.0957 21.4257 31.196C21.7295 31.3233 22.0691 31.2948 22.1699 31.1188C22.2707 30.9428 21.9669 30.8358 21.6963 30.5609C21.5345 30.3971 21.2479 30.0288 20.8818 29.7038C20.6337 29.4844 20.2278 29.4195 20.0447 29.1784C19.9466 29.0498 19.5009 27.9354 19.1652 26.9429C18.7513 25.712 18.2061 24.0736 18.2061 24.0736L20.4374 19.3344C20.4374 19.3344 22.1871 17.5524 20.6987 14.7766Z" fill="#FFEDE5"/>
<path d="M18.1373 30.2047C18.1373 30.2047 18.6507 29.1444 20.0409 29.1783L19.6735 28.3442C19.6735 28.3442 18.3164 28.4417 17.7446 29.38L18.1373 30.2047Z" fill="#37474F"/>
<path d="M17.9873 29.3041L18.2858 29.7361C18.3074 29.7675 18.335 29.7941 18.3669 29.8144C18.3988 29.8347 18.4344 29.8482 18.4715 29.8542C18.5087 29.8601 18.5466 29.8583 18.5831 29.849C18.6195 29.8396 18.6538 29.8229 18.6838 29.7997L19.2144 29.3935C19.2761 29.3453 19.3174 29.2749 19.33 29.1966C19.3425 29.1184 19.3254 29.0382 19.282 28.9724L19.0048 28.5553C18.9839 28.5231 18.9569 28.4956 18.9253 28.4745C18.8936 28.4533 18.8581 28.4389 18.8209 28.4322C18.7837 28.4255 18.7455 28.4266 18.7087 28.4354C18.6719 28.4442 18.6372 28.4606 18.6068 28.4836L18.0443 28.8898C17.9831 28.9371 17.9427 29.0073 17.932 29.0849C17.9213 29.1626 17.9412 29.2414 17.9873 29.3041Z" fill="#263238"/>
<path d="M17.8878 29.2935L18.1889 29.7255C18.2107 29.7567 18.2383 29.7832 18.2702 29.8034C18.3021 29.8236 18.3377 29.837 18.3748 29.843C18.4119 29.8489 18.4498 29.8472 18.4862 29.8379C18.5226 29.8287 18.5569 29.8121 18.5869 29.7891L19.1175 29.3829C19.1792 29.3347 19.2206 29.2644 19.2334 29.1862C19.2462 29.1081 19.2294 29.0278 19.1865 28.9618L18.9093 28.5447C18.8883 28.5127 18.8612 28.4853 18.8295 28.4643C18.7979 28.4432 18.7625 28.4289 18.7253 28.4222C18.6881 28.4155 18.65 28.4165 18.6132 28.4253C18.5764 28.434 18.5418 28.4502 18.5113 28.473L17.9488 28.886C17.8886 28.9323 17.8485 29.0009 17.8371 29.0771C17.8257 29.1532 17.8439 29.2309 17.8878 29.2935Z" fill="#455A64"/>
<path d="M19.1321 29.1512C19.1254 29.2048 19.0982 29.2535 19.0564 29.2866L18.5258 29.6929C18.5074 29.7079 18.486 29.7187 18.4631 29.7245C18.4402 29.7304 18.4164 29.7311 18.3932 29.7267C18.3704 29.7231 18.3486 29.7149 18.329 29.7026C18.3094 29.6903 18.2924 29.6741 18.2791 29.6549L17.9766 29.2216C17.9511 29.1857 17.9397 29.1412 17.9448 29.0971C17.9466 29.0703 17.9542 29.0443 17.967 29.0209C17.9799 28.9974 17.9976 28.9772 18.0191 28.9617L18.5815 28.5554C18.6003 28.5412 18.6218 28.5311 18.6447 28.5257C18.6675 28.5204 18.6912 28.5199 18.7142 28.5243C18.7369 28.5284 18.7586 28.5371 18.778 28.5499C18.7973 28.5627 18.814 28.5793 18.8269 28.5988L19.1042 29.0158C19.1302 29.0557 19.1415 29.1037 19.136 29.1512H19.1321Z" fill="url(#paint9_linear_810_4241)"/>
</g>
</g>
<defs>
<linearGradient id="paint0_linear_810_4241" x1="50" y1="50" x2="-16.6397" y2="44.8434" gradientUnits="userSpaceOnUse">
<stop stop-color="#C58BF2"/>
<stop offset="1" stop-color="#EEA4CE"/>
</linearGradient>
<linearGradient id="paint1_linear_810_4241" x1="13.9852" y1="41.8775" x2="7.87996" y2="41.5943" gradientUnits="userSpaceOnUse">
<stop stop-color="#92A3FD"/>
<stop offset="1" stop-color="#9DCEFF"/>
</linearGradient>
<linearGradient id="paint2_linear_810_4241" x1="12.69" y1="39.6359" x2="10.4213" y2="39.2107" gradientUnits="userSpaceOnUse">
<stop stop-color="#92A3FD"/>
<stop offset="1" stop-color="#9DCEFF"/>
</linearGradient>
<linearGradient id="paint3_linear_810_4241" x1="12.9321" y1="38.7556" x2="10.6699" y2="38.3697" gradientUnits="userSpaceOnUse">
<stop stop-color="#92A3FD"/>
<stop offset="1" stop-color="#9DCEFF"/>
</linearGradient>
<linearGradient id="paint4_linear_810_4241" x1="39.4674" y1="44.9132" x2="28.6204" y2="43.5579" gradientUnits="userSpaceOnUse">
<stop stop-color="#92A3FD"/>
<stop offset="1" stop-color="#9DCEFF"/>
</linearGradient>
<linearGradient id="paint5_linear_810_4241" x1="35.9106" y1="42.0035" x2="33.8026" y2="41.6874" gradientUnits="userSpaceOnUse">
<stop stop-color="#92A3FD"/>
<stop offset="1" stop-color="#9DCEFF"/>
</linearGradient>
<linearGradient id="paint6_linear_810_4241" x1="36.7712" y1="42.5477" x2="34.4395" y2="42.1672" gradientUnits="userSpaceOnUse">
<stop stop-color="#92A3FD"/>
<stop offset="1" stop-color="#9DCEFF"/>
</linearGradient>
<linearGradient id="paint7_linear_810_4241" x1="37.7225" y1="43.0229" x2="35.4213" y2="42.6544" gradientUnits="userSpaceOnUse">
<stop stop-color="#92A3FD"/>
<stop offset="1" stop-color="#9DCEFF"/>
</linearGradient>
<linearGradient id="paint8_linear_810_4241" x1="35.6755" y1="43.5575" x2="6.88006" y2="41.0858" gradientUnits="userSpaceOnUse">
<stop stop-color="#92A3FD"/>
<stop offset="1" stop-color="#9DCEFF"/>
</linearGradient>
<linearGradient id="paint9_linear_810_4241" x1="19.1374" y1="29.7295" x2="17.5461" y2="29.6079" gradientUnits="userSpaceOnUse">
<stop stop-color="#92A3FD"/>
<stop offset="1" stop-color="#9DCEFF"/>
</linearGradient>
<clipPath id="clip0_810_4241">
<rect width="32.7556" height="40.3836" fill="white" transform="translate(9 5.00024)"/>
</clipPath>
</defs>
</svg>
