<svg width="50" height="50" viewBox="0 0 50 50" fill="none" xmlns="http://www.w3.org/2000/svg">
<circle opacity="0.3" cx="25" cy="25" r="25" fill="url(#paint0_linear_810_4115)"/>
<mask id="mask0_810_4115" style="mask-type:alpha" maskUnits="userSpaceOnUse" x="0" y="0" width="50" height="50">
<circle cx="25" cy="25" r="25" fill="#C4C4C4"/>
</mask>
<g mask="url(#mask0_810_4115)">
<path d="M24.2964 61.0664C23.4399 61.068 22.5857 60.9771 21.7486 60.7954C20.2854 60.4939 18.9071 59.8706 17.713 58.9705C16.5188 58.0704 15.5386 56.9158 14.8429 55.59C14.2909 54.3499 13.8808 53.0511 13.6205 51.7183L13.5604 51.4645C12.7026 47.7992 11.6217 43.9231 9.62722 40.4213C9.30553 39.8578 8.95381 39.2942 8.61496 38.7522C7.79518 37.5248 7.10109 36.2176 6.54326 34.8503C5.68542 32.5057 5.84412 30.1741 7.01508 28.6383C7.16932 28.3996 7.37002 28.1947 7.60514 28.0358C7.84025 27.8769 8.10494 27.7672 8.38334 27.7133C8.55298 27.6928 8.72503 27.7074 8.88882 27.7562C9.05261 27.805 9.20466 27.8871 9.33555 27.9973C9.43765 28.0789 9.52138 28.1813 9.58126 28.2977C9.64113 28.4141 9.6758 28.5419 9.68298 28.6727H9.40418C9.39747 28.5815 9.37188 28.4927 9.32905 28.4119C9.28621 28.3312 9.22707 28.2603 9.1554 28.2038C9.05357 28.1189 8.93582 28.0554 8.8091 28.017C8.68239 27.9786 8.54929 27.966 8.41765 27.9801C7.93443 28.0905 7.51208 28.3832 7.23812 28.7974C6.12721 30.2644 5.95135 32.4885 6.80919 34.7427C7.3623 36.1002 8.05215 37.3976 8.86802 38.6145C9.20687 39.1609 9.55859 39.7244 9.88457 40.2923C11.8834 43.8199 12.9771 47.7175 13.8349 51.4042L13.895 51.6581C14.1498 52.9688 14.5528 54.2461 15.096 55.4653C15.772 56.7537 16.7249 57.8754 17.8857 58.7496C19.0466 59.6237 20.3864 60.2284 21.8086 60.5201C24.6844 61.0917 27.6681 60.686 30.2884 59.3672C31.3376 58.8982 32.2848 58.2273 33.0764 57.3926C33.8817 56.415 34.5023 55.2983 34.9079 54.0973C35.6242 52.213 36.1947 50.2255 36.7094 48.3111C37.5029 45.4546 38.3221 42.4992 39.7119 39.8234C40.1408 39.0404 40.5697 38.2703 41.0244 37.5261C41.8757 36.1904 42.594 34.774 43.169 33.2973C43.6622 31.8948 43.6837 30.7161 43.2376 29.8557C43.081 29.5688 42.8634 29.3199 42.6003 29.1266C42.3372 28.9333 42.0349 28.8004 41.7149 28.7372C41.4915 28.6842 41.2589 28.6842 41.0355 28.7373C40.8121 28.7903 40.6042 28.8948 40.4282 29.0426L40.2437 28.8318C40.4507 28.6543 40.6961 28.5276 40.9604 28.4618C41.2247 28.3961 41.5007 28.3932 41.7664 28.4533C42.1295 28.5284 42.4715 28.6831 42.7681 28.9062C43.0647 29.1293 43.3085 29.4153 43.4821 29.7439C43.9668 30.6903 43.9453 31.9207 43.4263 33.4005C42.8454 34.8959 42.1154 36.3285 41.2474 37.6767C40.8185 38.4209 40.3467 39.1867 39.9606 39.961C38.5881 42.611 37.7731 45.5536 36.9839 48.3929C36.4478 50.3201 35.8944 52.312 35.1696 54.2048C34.7549 55.439 34.1181 56.5865 33.2909 57.5905C32.4733 58.4519 31.4956 59.1446 30.4128 59.6296C28.5065 60.5603 26.4165 61.0513 24.2964 61.0664Z" fill="url(#paint1_linear_810_4115)"/>
<path d="M27.4447 10.9742C27.6665 10.6211 27.7935 10.2166 27.8136 9.79978C27.8378 9.61258 27.8208 9.42234 27.7637 9.24246C27.7066 9.06258 27.6109 8.89745 27.4833 8.7587C27.3761 8.65546 27.2431 8.57372 27.1445 8.46187C27.0458 8.35002 26.9986 8.23387 26.9171 8.12632C26.8288 8.01093 26.7151 7.91753 26.5849 7.85337C26.4547 7.78921 26.3116 7.756 26.1665 7.75635C25.8706 7.75635 25.5574 7.89401 25.3087 7.75635C25.1543 7.67891 25.0513 7.52404 24.8797 7.438C24.7183 7.35557 24.533 7.33273 24.3565 7.37347C24.2022 7.42743 24.0393 7.45223 23.8761 7.44661C23.6444 7.41219 23.4857 7.2057 23.2799 7.08954C23.174 7.03527 23.0576 7.00488 22.9389 7.00049C22.8201 6.99611 22.7018 7.01783 22.5923 7.06415C22.4827 7.11047 22.3846 7.18025 22.3048 7.26862C22.225 7.35698 22.1655 7.46178 22.1303 7.57566C22.1024 7.6843 22.1024 7.79828 22.1303 7.90692C22.1775 8.16934 22.3577 8.38013 22.3705 8.64255C22.3834 8.90497 22.2247 9.13298 22.3705 9.36528C22.5164 9.59759 22.7308 9.60619 22.8338 9.82559C22.971 10.1224 22.8338 10.5096 22.9582 10.8279C23.0225 11.0301 23.0568 11.3184 23.2455 11.4474C23.5072 11.6281 24.0777 11.4775 24.3908 11.4474L25.6046 11.3485C26.1408 11.2969 26.8013 11.3485 27.286 11.0818C27.3445 11.0551 27.3982 11.0187 27.4447 10.9742Z" fill="#3B2645"/>
<path d="M23.3272 10.7849C23.2846 10.7262 23.2288 10.6785 23.1643 10.6456C23.0998 10.6127 23.0285 10.5955 22.9561 10.5955C22.8838 10.5955 22.8125 10.6127 22.748 10.6456C22.6835 10.6785 22.6277 10.7262 22.5851 10.7849C22.212 11.2151 22.8425 12.0755 23.3272 12.1271C23.3554 11.6801 23.3554 11.2318 23.3272 10.7849Z" fill="#E0855C"/>
<path d="M29.3535 17.9907C29.2404 18.7153 29.0886 19.4334 28.8988 20.1417C28.8688 20.275 28.843 20.4041 28.8259 20.5289C28.8087 20.6536 28.7916 20.7483 28.7701 20.9074C28.7701 20.9376 28.7701 20.972 28.7701 21.0021C28.7701 21.1053 28.7401 21.2129 28.7272 21.329L28.1868 26.3838C24.8283 27.3088 21.324 26.3838 21.324 26.3838C21.324 26.3838 21.324 26.3193 21.324 26.1945C21.2683 25.6224 21.0967 23.8027 20.9251 21.7506C20.9251 21.7506 20.9251 21.7205 20.9251 21.7076C20.9269 21.6761 20.9269 21.6445 20.9251 21.613C20.8522 20.7526 20.7836 19.8405 20.7278 18.9716C20.6249 17.4616 20.5605 16.0677 20.5734 15.203C20.5734 14.8847 21.3154 14.9191 21.8216 14.8503C22.1947 14.7986 22.5765 14.7642 22.9067 14.747C23.237 14.7298 23.4858 14.7212 23.6531 14.7212H23.8418C23.8418 14.7212 23.8847 14.2265 23.8847 14.2222L24.0005 13.009C24.0568 13.0236 24.1142 13.0337 24.1721 13.0391C24.2782 13.0591 24.3858 13.0706 24.4938 13.0736C24.6353 13.0736 24.7683 13.0736 24.8927 13.0736L25.0771 13.0521H25.1843C25.3044 13.0305 25.4202 13.0047 25.5275 12.9746C25.6347 12.9445 25.669 12.9316 25.7376 12.9101C26.051 12.8094 26.3485 12.6645 26.6212 12.4799L26.6598 12.4541L26.7327 12.3982L26.7842 12.3594C26.7842 12.4197 26.7842 12.4455 26.7842 12.4713C26.7499 12.7552 26.7113 13.1166 26.6941 13.4736C26.6941 13.7232 26.6684 13.9684 26.6598 14.1792C26.6512 14.39 26.5826 14.6954 26.7327 14.803C26.7863 14.8331 26.8442 14.8549 26.9043 14.8675C27.1397 14.9048 27.378 14.9206 27.6163 14.9148C27.6892 14.9148 27.7622 14.9148 27.8351 14.9148C28.0179 14.9041 28.2012 14.9041 28.3841 14.9148C28.5119 14.9144 28.6384 14.9397 28.7563 14.9892C28.8742 15.0388 28.981 15.1114 29.0704 15.203C29.1815 15.3644 29.2522 15.5504 29.2762 15.7451L29.3277 16.0978C29.4094 16.7257 29.418 17.3609 29.3535 17.9907Z" fill="#FFEDE5"/>
<path d="M26.7671 12.3293C26.7091 12.6372 26.5838 12.9283 26.4002 13.1818C26.2166 13.4353 25.9793 13.6449 25.7053 13.7954C25.4314 13.946 25.1275 14.0338 24.8157 14.0525C24.5039 14.0713 24.1918 14.0205 23.9019 13.9038L23.9834 13.0133C24.4691 13.1073 24.9693 13.0948 25.4498 12.9767C25.9303 12.8587 26.3796 12.6378 26.7671 12.3293Z" fill="#E0855C"/>
<path d="M23.4131 9.49448C23.1643 9.7526 23.1429 10.3291 23.1257 10.9657C23.0614 12.9016 23.6404 13.5039 24.6226 13.6115C25.6049 13.719 26.6386 13.3361 26.8488 11.5465C26.956 10.6474 27.0675 9.82573 26.7415 9.43425C26.274 8.85779 24.168 8.70292 23.4131 9.49448Z" fill="#FFEDE5"/>
<path d="M26.7029 11.2841C26.7029 11.2841 27.0031 10.4839 27.4792 10.9098C27.9553 11.3357 27.2991 12.5445 26.5699 12.4542C26.5785 12.4542 26.4798 11.5594 26.7029 11.2841Z" fill="#FFEDE5"/>
<path d="M27.2689 11.2754C27.1563 11.3107 27.0555 11.3761 26.9773 11.4647C26.8887 11.5389 26.817 11.6313 26.7671 11.7357C26.7671 11.7658 26.7971 11.7873 26.8186 11.7658C26.879 11.7058 26.9363 11.6426 26.9901 11.5765C27.0293 11.6198 27.0777 11.6536 27.1317 11.6755C27.1746 11.6755 27.2089 11.6368 27.1917 11.6024C27.162 11.5568 27.1224 11.5186 27.0759 11.4905C27.156 11.4391 27.232 11.3816 27.3032 11.3184C27.3046 11.3133 27.3047 11.3078 27.3036 11.3026C27.3025 11.2974 27.3001 11.2925 27.2968 11.2883C27.2935 11.2841 27.2892 11.2808 27.2844 11.2786C27.2795 11.2763 27.2743 11.2752 27.2689 11.2754Z" fill="#E0855C"/>
<path d="M23.9707 10.9225C23.9707 10.9225 23.8034 10.9827 23.8291 10.6859C23.8548 10.3891 23.9707 10.4579 23.9707 10.4579C23.9707 10.4579 24.0865 10.4579 24.0693 10.6902C24.0521 10.9225 23.9707 10.9225 23.9707 10.9225Z" fill="#3B2645"/>
<path d="M25.6561 10.9225C25.6561 10.9225 25.4931 10.9827 25.5189 10.6859C25.5446 10.3891 25.6561 10.4579 25.6561 10.4579C25.6561 10.4579 25.7719 10.4579 25.7548 10.6902C25.7376 10.9225 25.6561 10.9225 25.6561 10.9225Z" fill="#3B2645"/>
<path d="M24.1507 10.0235C24.0833 9.98521 24.0056 9.96919 23.9286 9.97768C23.8517 9.98618 23.7793 10.0188 23.7218 10.0708C23.7189 10.0767 23.7175 10.0832 23.7178 10.0898C23.7181 10.0963 23.7201 10.1027 23.7235 10.1083C23.7269 10.1139 23.7317 10.1185 23.7374 10.1218C23.7431 10.125 23.7496 10.1267 23.7561 10.1267C23.8162 10.1267 23.8676 10.0923 23.9277 10.088C23.9906 10.085 24.0534 10.0953 24.1121 10.1181C24.1679 10.1353 24.2065 10.0493 24.1507 10.0235Z" fill="#3B2645"/>
<path d="M25.9093 10.1698C25.8407 9.9977 25.5447 9.98479 25.416 10.088C25.4098 10.0929 25.4047 10.0991 25.4013 10.1061C25.3978 10.1132 25.396 10.121 25.396 10.1289C25.396 10.1368 25.3978 10.1446 25.4013 10.1517C25.4047 10.1588 25.4098 10.165 25.416 10.1698C25.4931 10.1762 25.5706 10.1762 25.6476 10.1698C25.71 10.1799 25.7706 10.1987 25.8278 10.2257C25.8352 10.2365 25.8466 10.244 25.8594 10.2464C25.8723 10.2488 25.8856 10.246 25.8964 10.2386C25.9072 10.2312 25.9146 10.2198 25.9171 10.2069C25.9195 10.194 25.9167 10.1806 25.9093 10.1698Z" fill="#3B2645"/>
<path d="M24.3093 12.3078C24.6712 12.3554 25.0389 12.2924 25.3645 12.1271C25.3158 12.2419 25.2437 12.3452 25.1528 12.4304C25.062 12.5156 24.9544 12.5808 24.8369 12.6219C24.4637 12.7251 24.3093 12.3078 24.3093 12.3078Z" fill="white"/>
<path d="M22.1432 15.1988C23.1297 15.8914 23.2198 17.2379 22.7394 18.3134C22.4134 19.0319 21.8086 19.5352 21.4526 20.2149C21.0816 20.8741 20.6509 21.4977 20.1658 22.0776C19.1021 23.4328 18.0898 24.6588 17.6995 25.1234C16.357 26.7324 13.5347 28.8575 12.5181 29.5975C12.2865 29.7696 12.1493 29.8642 12.1493 29.8642C12.1493 29.8642 11.1756 29.3523 11.433 28.4058C11.433 28.4058 15.2933 24.2932 15.8637 23.4543C16.4942 22.3639 17.0668 21.241 17.5794 20.0901C18.2371 18.8139 18.9219 17.5548 19.634 16.313C19.9599 15.7409 20.376 15.0224 21.0923 14.8934C21.3814 14.8608 21.6732 14.9226 21.9244 15.0697C22.0003 15.1075 22.0734 15.1506 22.1432 15.1988Z" fill="#FFEDE5"/>
<path d="M11.4331 28.4102C11.5387 28.402 11.6448 28.402 11.7505 28.4102C11.7505 28.4102 12.677 28.9264 12.5183 29.5975C12.5183 29.5975 12.4196 29.6878 12.2652 29.8255C12.1108 29.9632 11.9435 30.1266 11.7419 30.3331C11.5403 30.5396 11.0814 31.1935 10.8841 31.1376C10.8381 31.1206 10.7979 31.0907 10.7682 31.0516L10.3694 30.6214C10.1463 30.3719 9.77315 29.9503 10.0562 29.619C9.85035 29.7438 9.36996 30.0492 9.13405 29.9029L9.0354 29.7438C9.0354 29.7438 9.74312 29.2146 10.0348 28.9522C10.4283 28.6213 10.92 28.4307 11.4331 28.4102Z" fill="#FFEDE5"/>
<path d="M23.3143 21.7895C23.3129 21.8124 23.3129 21.8355 23.3143 21.8584C23.3143 21.8584 23.353 21.8584 23.3444 21.8584L23.3143 21.7895Z" fill="#D6BED3"/>
<path d="M24.9055 35.7321C24.5109 38.9026 24.0477 41.6602 24.0477 41.6602C24.112 42.4259 24.1421 43.2562 24.1421 44.108C24.1421 45.7772 24.0305 47.5496 23.889 49.1112C23.7088 51.103 23.4601 52.798 23.3528 53.6498V53.7573C23.5115 59.4058 21.9074 60.1543 21.1568 58.9197C20.4061 57.685 21.1568 54.0455 21.1568 54.0455C21.1592 54.0126 21.1592 53.9795 21.1568 53.9466C20.841 52.2564 20.6304 50.548 20.5262 48.8316C20.2689 44.6759 20.7107 41.8323 20.6592 41.316C19.7628 32.2819 21.0152 27.3002 21.0152 27.3002C21.2107 26.5764 21.5638 25.9049 22.0489 25.3342C22.9625 24.3448 24.0606 24.5943 24.7511 25.8032C24.8237 25.9271 24.8896 26.0549 24.9484 26.186C25.2298 26.8804 25.3894 27.6183 25.4202 28.3671C25.4889 30.2385 25.2272 33.1251 24.9055 35.7321Z" fill="#FFEDE5"/>
<path d="M29.3362 48.612C29.2364 50.3643 29.0272 52.1086 28.7099 53.8346L28.6713 54.0454C28.6713 54.0454 29.4219 57.6977 28.6713 58.9195C27.9207 60.1413 26.3337 59.4271 26.4752 53.8346C26.4752 53.8088 26.4752 53.783 26.4752 53.7614C26.3551 52.9527 26.115 51.2018 25.9262 49.1282C25.7804 47.5537 25.6689 45.7899 25.6689 44.1207C25.6689 43.2604 25.7032 42.4344 25.7675 41.6643C25.7675 41.6643 25.2914 38.9068 24.9097 35.7405C24.588 33.1292 24.3221 30.2426 24.4336 28.3885C24.4657 27.6393 24.6267 26.9014 24.9097 26.2074C24.9659 26.0722 25.0318 25.9414 25.107 25.8159C25.9005 24.435 27.2216 24.3145 28.1952 25.8718C28.4741 26.3232 28.6933 26.8091 28.8472 27.3173C28.8472 27.3173 30.0996 32.286 29.2032 41.3331C29.1389 41.8407 29.5635 44.5854 29.3362 48.612Z" fill="#FFEDE5"/>
<path d="M11.33 31.2021C11.4155 31.3013 11.5216 31.3805 11.641 31.434C11.7603 31.4876 11.8899 31.5141 12.0206 31.5119C12.0805 31.4979 12.1369 31.4719 12.1865 31.4354C12.236 31.3989 12.2777 31.3528 12.309 31.2997C12.3403 31.2466 12.3605 31.1877 12.3684 31.1266C12.3763 31.0655 12.3718 31.0033 12.3552 30.944C12.3053 30.8131 12.2243 30.6965 12.1193 30.6041C11.4716 29.9588 10.8068 29.3136 10.1333 28.7156C10.0208 28.5884 9.87041 28.5009 9.70442 28.4661C9.55005 28.466 9.40066 28.5209 9.28284 28.6209C9.16502 28.721 9.08643 28.8597 9.06104 29.0124C9.06104 29.2877 9.29694 29.391 9.48996 29.5459C10.099 30.0879 10.7081 30.6558 11.33 31.2021Z" fill="#3B2645"/>
<path d="M11.2359 30.4405C11.2626 30.4129 11.2843 30.3809 11.3002 30.3459C11.3111 30.3015 11.3117 30.2551 11.302 30.2104C11.2924 30.1657 11.2727 30.1237 11.2444 30.0878C11.0857 29.8254 10.7598 29.4038 10.4381 29.365C10.3319 29.3596 10.2261 29.3822 10.1313 29.4305C10.0365 29.4788 9.9559 29.5512 9.89762 29.6404C9.80136 29.7793 9.74015 29.9395 9.71923 30.1074C9.69831 30.2752 9.71831 30.4456 9.77752 30.604C9.87166 30.8889 10.0651 31.1303 10.3223 31.2837C10.4506 31.3383 10.595 31.341 10.7253 31.2913C10.8555 31.2416 10.9616 31.1433 11.0214 31.017C11.0857 30.8578 11.0643 30.6642 11.1672 30.5309C11.1868 30.4983 11.2098 30.4681 11.2359 30.4405Z" fill="#FFEDE5"/>
<path d="M27.6507 15.199C26.6599 15.8916 26.5698 17.2381 27.0545 18.3136C27.3762 19.032 27.9809 19.5354 28.3412 20.2151C28.7152 20.8724 29.1458 21.4957 29.628 22.0778C30.6917 23.4329 31.7083 24.659 32.0943 25.1236C33.4411 26.7411 36.2634 28.8577 37.28 29.5976L37.6532 29.8644C37.6532 29.8644 38.6225 29.3524 38.3652 28.406C38.3652 28.406 34.5049 24.2933 33.9344 23.4544C33.3022 22.365 32.7295 21.242 32.2187 20.0903C31.5582 18.7997 30.8762 17.5565 30.1599 16.3132C29.8339 15.741 29.4221 15.0226 28.7015 14.8935C28.4125 14.8613 28.1207 14.9231 27.8694 15.0699C27.7934 15.1075 27.7203 15.1506 27.6507 15.199Z" fill="#FFEDE5"/>
<path d="M38.3609 28.4101C38.2538 28.402 38.1463 28.402 38.0392 28.4101C38.0392 28.4101 37.1128 28.9263 37.2715 29.5975C37.2715 29.5975 37.3744 29.6878 37.5245 29.8255C37.6746 29.9631 37.8505 30.1266 38.0478 30.3331C38.2451 30.5396 38.7126 31.1935 38.9057 31.1376C38.951 31.1194 38.9909 31.0897 39.0215 31.0515L39.4161 30.6213C39.6434 30.3718 40.0123 29.9502 39.7335 29.619C39.9351 29.7437 40.4155 30.0492 40.6557 29.9029L40.7372 29.7437C40.7372 29.7437 40.0294 29.2146 39.7335 28.9522C39.3476 28.6254 38.8653 28.435 38.3609 28.4101Z" fill="#FFEDE5"/>
<path d="M38.4597 31.2021C38.3742 31.3013 38.2681 31.3805 38.1487 31.434C38.0294 31.4876 37.8998 31.5141 37.7691 31.5119C37.7085 31.4989 37.6511 31.4736 37.6006 31.4375C37.55 31.4015 37.5074 31.3555 37.4753 31.3023C37.4431 31.2491 37.4222 31.1899 37.4137 31.1282C37.4052 31.0666 37.4094 31.0039 37.426 30.944C37.4795 30.8189 37.5618 30.7083 37.6662 30.6214C38.3153 29.9761 38.9787 29.3465 39.6564 28.7328C39.7683 28.6048 39.919 28.5172 40.0853 28.4833C40.2392 28.4834 40.388 28.5384 40.5051 28.6385C40.6222 28.7386 40.6999 28.8773 40.7244 29.0296C40.7244 29.305 40.4928 29.4082 40.2955 29.5631C39.6907 30.0879 39.0816 30.6558 38.4597 31.2021Z" fill="#3B2645"/>
<path d="M38.5581 30.4405C38.5288 30.4142 38.5055 30.3819 38.4895 30.3459C38.4804 30.3011 38.4811 30.2548 38.4915 30.2103C38.5018 30.1657 38.5216 30.1239 38.5495 30.0878C38.704 29.8254 39.0299 29.4038 39.3516 29.365C39.4578 29.3596 39.5636 29.3822 39.6584 29.4305C39.7532 29.4788 39.8338 29.5512 39.8921 29.6404C39.9872 29.7799 40.0468 29.9408 40.0655 30.1088C40.0842 30.2768 40.0615 30.4469 39.9993 30.604C39.908 30.8905 39.7139 31.1327 39.4546 31.2837C39.3262 31.3383 39.1818 31.341 39.0516 31.2913C38.9213 31.2416 38.8152 31.1433 38.7554 31.017C38.6954 30.8578 38.7168 30.6642 38.6096 30.5309L38.5581 30.4405Z" fill="#FFEDE5"/>
<path d="M29.4008 45.8544V46.2846C29.4008 46.5728 29.4008 46.8697 29.4008 47.1751V47.5236C29.4008 47.8763 29.375 48.242 29.3579 48.6163C28.2473 48.9235 27.1038 49.0954 25.9522 49.1282C25.905 48.6464 25.8107 47.3644 25.8064 47.2224C25.8064 46.9299 25.742 46.1039 25.7378 45.9921C25.712 45.364 25.6949 44.7359 25.6949 44.1207C25.6949 43.3205 25.7249 42.5376 25.7849 41.8106C25.7849 41.7589 25.7849 41.7116 25.7849 41.6643C25.7849 41.617 25.3088 38.911 24.9271 35.7405C24.8842 36.076 24.8413 36.4116 24.7984 36.7342C24.4381 39.4617 24.0564 41.6643 24.0564 41.6643C24.1207 42.43 24.1507 43.2603 24.1507 44.1121C24.1507 44.7617 24.1507 45.4027 24.1036 46.0824C24.1036 46.1943 24.0178 47.6311 24.0049 47.7688C23.9749 48.2291 23.9363 48.6808 23.8977 49.1153C23.2972 49.0895 22.7053 49.0508 22.1176 48.9991C21.6544 48.9604 21.0711 48.9346 20.5049 48.8529C20.4792 48.4657 20.462 48.0957 20.4491 47.7344C20.4491 47.644 20.4491 47.5537 20.4491 47.4633C20.4491 47.0676 20.4491 46.6933 20.4491 46.3319V46.048C20.4491 43.441 20.7022 41.7245 20.6636 41.3158C19.7671 32.2817 21.0196 27.3 21.0196 27.3C21.2151 26.5762 21.5682 25.9047 22.0533 25.334C22.421 25.3911 22.7818 25.4863 23.1299 25.618C23.6602 25.757 24.2076 25.8192 24.7555 25.803H25.1501C25.6262 25.803 26.1023 25.747 26.5742 25.7341H26.8916C27.3439 25.7274 27.7955 25.7707 28.2384 25.8632C28.5031 26.3195 28.7078 26.8082 28.8474 27.3173C29.1939 28.941 29.3977 30.5921 29.4565 32.2516C29.6018 35.2808 29.5172 38.3167 29.2034 41.333C29.152 41.7159 29.3793 43.355 29.4008 45.8544Z" fill="#3B2645"/>
<path d="M12.2095 14.6867C12.2095 14.6609 12.1581 14.6609 12.1538 14.6867C11.9393 16.1537 12.0637 17.6981 12.0637 19.1995C12.0637 20.7869 12.0122 22.3872 12.1066 23.9704C12.1107 23.9873 12.1203 24.0023 12.1339 24.0131C12.1475 24.0238 12.1643 24.0297 12.1817 24.0297C12.199 24.0297 12.2158 24.0238 12.2294 24.0131C12.2431 24.0023 12.2527 23.9873 12.2567 23.9704C12.3468 22.3872 12.2953 20.7869 12.2953 19.1995C12.2953 17.7325 12.4197 16.1666 12.2095 14.6867Z" fill="#F7F8F8"/>
<path d="M14.0838 15.1858C14.0793 15.1647 14.0676 15.1457 14.0509 15.1322C14.0341 15.1186 14.0132 15.1112 13.9916 15.1112C13.9701 15.1112 13.9492 15.1186 13.9324 15.1322C13.9156 15.1457 13.904 15.1647 13.8994 15.1858C13.8994 16.5968 13.8093 18.0337 13.8994 19.4404C13.8994 19.4644 13.9089 19.4874 13.9258 19.5043C13.9427 19.5213 13.9656 19.5308 13.9895 19.5308C14.0134 19.5308 14.0363 19.5213 14.0532 19.5043C14.0701 19.4874 14.0796 19.4644 14.0796 19.4404C14.1782 18.0337 14.0924 16.5968 14.0838 15.1858Z" fill="#F7F8F8"/>
<path d="M33.2608 29.9588C33.2573 29.946 33.2497 29.9348 33.2393 29.9268C33.2288 29.9188 33.216 29.9145 33.2029 29.9145C33.1897 29.9145 33.1769 29.9188 33.1665 29.9268C33.156 29.9348 33.1484 29.946 33.145 29.9588C33.0241 31.8061 32.9998 33.6584 33.072 35.5083C33.072 37.3581 33.072 39.2037 33.1407 41.0535C33.1443 41.0673 33.1524 41.0795 33.1636 41.0881C33.1749 41.0968 33.1887 41.1015 33.2029 41.1015C33.2171 41.1015 33.2308 41.0968 33.2421 41.0881C33.2533 41.0795 33.2614 41.0673 33.2651 41.0535C33.3251 39.2037 33.3251 37.3581 33.3337 35.5083C33.4038 33.6584 33.3794 31.8062 33.2608 29.9588Z" fill="#F7F8F8"/>
<path d="M36.568 19.1393C36.5546 17.9084 36.4745 16.6791 36.3278 15.4569C36.3278 15.3837 36.212 15.4052 36.2077 15.4569C36.1746 16.7787 36.2133 18.1013 36.3235 19.419C36.3793 20.645 36.3664 21.9012 36.5294 23.1143C36.5294 23.2262 36.7181 23.1918 36.7224 23.0885C36.7825 21.7764 36.6452 20.4385 36.568 19.1393Z" fill="#F7F8F8"/>
<path d="M37.4257 19.8233C37.4227 19.8137 37.4167 19.8053 37.4086 19.7993C37.4005 19.7933 37.3907 19.7901 37.3806 19.7901C37.3706 19.7901 37.3608 19.7933 37.3527 19.7993C37.3446 19.8053 37.3386 19.8137 37.3356 19.8233C37.222 21.5908 37.2134 23.3635 37.3099 25.1319C37.3072 25.1427 37.307 25.154 37.3093 25.1648C37.3116 25.1757 37.3164 25.1859 37.3232 25.1946C37.33 25.2034 37.3388 25.2104 37.3487 25.2153C37.3587 25.2202 37.3696 25.2227 37.3806 25.2227C37.3917 25.2227 37.4026 25.2202 37.4126 25.2153C37.4225 25.2104 37.4313 25.2034 37.4381 25.1946C37.4449 25.1859 37.4496 25.1757 37.452 25.1648C37.4543 25.154 37.4541 25.1427 37.4514 25.1319C37.5479 23.3635 37.5393 21.5908 37.4257 19.8233Z" fill="#F7F8F8"/>
<path d="M24.7769 36.73C24.7834 36.395 24.8265 36.0618 24.9055 35.7363C24.8626 36.0718 24.8197 36.4074 24.7769 36.73Z" fill="#291B30"/>
<path d="M29.4437 32.2518C28.8646 28.7629 24.0821 28.5995 24.0821 28.5995C23.7862 27.1626 25.7163 26.7324 25.7163 26.7324L26.8444 25.7559C27.2967 25.7491 27.7484 25.7924 28.1912 25.8849C28.4706 26.3321 28.6912 26.8136 28.8475 27.3175C29.1869 28.9421 29.3863 30.5929 29.4437 32.2518Z" fill="#291B30"/>
<path d="M28.9158 27.6916C25.0555 29.5113 20.8606 27.8421 20.8606 27.8421C21.1651 26.9817 20.9378 22.5937 20.9164 21.7591C20.9164 21.7591 20.9164 21.729 20.9164 21.7161C20.9181 21.6846 20.9181 21.653 20.9164 21.6215C21.727 19.7372 21.8171 16.1064 21.8214 14.8588C22.186 14.8029 22.5677 14.7728 22.898 14.7556C23.0267 16.1494 23.4856 19.7243 24.7638 19.5694C26.042 19.4146 26.6511 16.2311 26.8741 14.8373C27.1093 14.8769 27.3478 14.8927 27.5861 14.8846C27.659 14.8846 27.7319 14.8846 27.8049 14.8846C27.6933 16.7904 28.7485 20.7955 28.7785 20.9074C28.7785 20.9375 28.7785 20.9719 28.7785 21.002C28.7785 21.1053 28.7485 21.2128 28.7356 21.329C28.7356 21.329 28.7356 21.3763 28.7356 21.4021C28.4654 23.8284 28.9158 27.6916 28.9158 27.6916Z" fill="url(#paint2_linear_810_4115)"/>
</g>
<defs>
<linearGradient id="paint0_linear_810_4115" x1="50" y1="50" x2="-16.6397" y2="44.8434" gradientUnits="userSpaceOnUse">
<stop stop-color="#92A3FD"/>
<stop offset="1" stop-color="#9DCEFF"/>
</linearGradient>
<linearGradient id="paint1_linear_810_4115" x1="43.8311" y1="61.0665" x2="-6.50431" y2="56.6497" gradientUnits="userSpaceOnUse">
<stop stop-color="#92A3FD"/>
<stop offset="1" stop-color="#9DCEFF"/>
</linearGradient>
<linearGradient id="paint2_linear_810_4115" x1="28.9158" y1="28.5413" x2="18.1376" y2="28.054" gradientUnits="userSpaceOnUse">
<stop stop-color="#92A3FD"/>
<stop offset="1" stop-color="#9DCEFF"/>
</linearGradient>
</defs>
</svg>
