<svg width="50" height="50" viewBox="0 0 50 50" fill="none" xmlns="http://www.w3.org/2000/svg">
<circle opacity="0.3" cx="25" cy="25" r="25" fill="url(#paint0_linear_810_4176)"/>
<mask id="mask0_810_4176" style="mask-type:alpha" maskUnits="userSpaceOnUse" x="0" y="0" width="50" height="50">
<circle cx="25" cy="25" r="25" fill="#C4C4C4"/>
</mask>
<g mask="url(#mask0_810_4176)">
<g clip-path="url(#clip0_810_4176)">
<path d="M19.0849 21.1349C19.0849 21.1349 20.111 12.8522 19.8793 9.82733C19.7605 8.2758 19.0047 7.92479 17.8493 8.01328C16.694 8.10177 10.0872 11.5898 10.0872 11.5898L11.0287 13.8462L16.5232 12.1295C16.5232 12.1295 15.9634 15.3521 15.8342 15.9641C15.705 16.5762 15.4347 17.4006 15.2194 18.1395C15.1139 18.5038 14.9669 18.9757 14.9669 19.2043C14.9699 19.7441 19.0849 21.1349 19.0849 21.1349Z" fill="#FFEDE5"/>
<path d="M16.523 12.1296C17.2893 11.9821 18.0541 11.5323 18.2947 11.1739C18.1711 11.5769 17.8984 11.9184 17.5314 12.1296C17.1821 12.3533 16.8121 12.5434 16.4265 12.6974L16.523 12.1296Z" fill="#F28F8F"/>
<path d="M29.4858 20.9873C29.3715 20.5655 28.626 20.1216 26.4044 19.7514C24.1828 19.3812 22.1617 19.7514 22.1498 20.0125C22.138 20.2735 22.6978 22.0182 25.2595 22.3368C27.8211 22.6554 29.7204 21.9135 29.4858 20.9873Z" fill="#263238"/>
<path d="M22.8034 24.5725C22.8034 24.5725 21.3555 15.2457 21.5634 13.3417C21.7787 11.3742 22.5301 10.4613 23.7909 10.333C25.4378 11.2828 26.3154 13.5526 27.3683 15.7899C28.4212 18.0272 29.5617 22.8263 29.6226 25.1197C29.6835 27.4131 27.8569 29.0472 25.7883 29.3451C23.7196 29.643 22.8034 24.5725 22.8034 24.5725Z" fill="#FFEDE5"/>
<path d="M25.0783 17.2708C24.4102 16.7374 23.9587 15.982 23.8071 15.1441L25.8787 14.4273L27.2761 15.5821L27.3177 15.6721C27.3355 15.7104 27.3533 15.7488 27.3726 15.7871C27.4127 15.8726 27.4528 15.9626 27.4929 16.054C27.5033 16.0806 27.5152 16.1071 27.5271 16.1352C27.5583 16.206 27.588 16.2826 27.6192 16.3564L27.6503 16.4331C27.6919 16.5348 27.732 16.6396 27.7736 16.7472C27.8137 16.8549 27.8538 16.9655 27.8939 17.0776C27.9028 17.1027 27.9117 17.1263 27.9191 17.1498L28.0261 17.4596C28.0261 17.4743 28.0365 17.4905 28.0424 17.5053C28.1256 17.756 28.2087 18.0156 28.2889 18.281L28.3023 18.3238C28.3424 18.4551 28.381 18.5878 28.4196 18.722C28.4196 18.722 26.495 18.4477 25.0783 17.2708Z" fill="#F28F8F"/>
<path d="M23.3542 10.4127C24.1412 10.1045 25.0991 10.8257 25.6054 11.1501C26.6346 11.805 32.9266 16.6749 34.3938 17.8164C34.7116 18.0081 35.0353 18.1925 35.365 18.3665L33.6364 21.0507C33.4945 20.6649 33.2723 20.3132 32.9845 20.0183C31.4163 18.9063 28.3809 18.3001 26.4267 17.545C24.906 16.9551 24.5882 16.6247 24.0759 15.7619C23.6838 15.0791 22.2686 10.923 23.3542 10.4127Z" fill="#FFEDE5"/>
<path d="M22.7721 24.6243L22.1499 20.0125C22.1499 20.0125 22.7083 21.2838 25.5833 21.6186C28.4582 21.9534 29.5586 21.4711 29.4859 20.9874C29.4859 20.9874 30.2373 23.8751 29.9462 25.7511C29.6552 27.6271 26.7698 29.6255 26.7698 29.6255L22.7721 24.6243Z" fill="#37474F"/>
<path opacity="0.15" d="M24.0448 25.2555C23.7804 25.2555 23.5324 25.2717 23.3022 25.2865L26.498 29.2788H27.2405C28.0691 28.6255 29.7309 27.1565 29.9477 25.7554C30.1615 24.3794 29.814 22.4621 29.6136 21.5359C29.7279 22.6008 27.3296 25.1862 24.0448 25.2555Z" fill="black"/>
<path d="M38.4376 14.4642C37.3981 14.2724 36.9154 15.0172 36.5323 15.6322C36.1492 16.2472 35.5076 17.3755 35.221 17.5657C34.9344 17.756 34.7755 17.5657 34.3672 17.871C33.9588 18.1763 33.6603 18.7559 33.7865 18.9668L34.0835 19.4801C33.9123 19.4614 33.739 19.4831 33.5778 19.5433C33.4165 19.6035 33.2718 19.7006 33.1554 19.8267C32.7099 20.2691 32.9415 20.3429 33.1925 20.5936C33.4435 20.8443 34.033 21.977 34.6241 22.2852C34.6241 22.2852 36.216 21.8118 37.3698 20.0184C38.5237 18.225 38.4376 14.4642 38.4376 14.4642Z" fill="url(#paint1_linear_810_4176)"/>
<path d="M34.9522 22.5227C34.8913 22.512 34.8334 22.4887 34.782 22.4545C34.7306 22.4203 34.687 22.3758 34.6539 22.3239C34.6208 22.272 34.5989 22.2139 34.5897 22.1531C34.5805 22.0924 34.5841 22.0304 34.6003 21.9711C34.7762 21.4181 35.0404 20.8967 35.3829 20.427C35.7824 19.8636 36.5308 18.8047 36.657 18.2251C36.7833 17.6454 37.055 16.0217 37.499 15.3418C37.9431 14.6619 38.399 14.2695 38.9841 14.4893C39.5692 14.709 37.7218 19.0613 37.1798 19.7987C36.6377 20.5361 34.9522 22.5227 34.9522 22.5227Z" fill="#37474F"/>
<path d="M35.2938 22.4282C36.7565 21.6539 37.2377 20.9018 37.6698 19.921C38.1019 18.9402 39.1118 18.0362 39.3731 17.1557C39.6345 16.2752 39.6612 14.0172 38.6559 14.5644C37.6505 15.1116 37.4411 17.1306 37.0001 18.2972C36.559 19.4638 33.8593 23.1907 35.2938 22.4282Z" fill="#263238"/>
<path d="M26.5026 24.813C27.1708 24.7113 28.4554 24.9856 29.6211 26.602C30.873 28.3379 31.1061 31.3672 30.3205 31.6164C30.3205 31.6164 28.4999 31.4041 27.2495 30.7537C25.9991 30.1033 23.8978 25.7097 26.5026 24.813Z" fill="#263238"/>
<path d="M47.8571 39.2664C45.9177 38.5098 44.3302 37.209 42.9566 35.7548C41.8517 34.2653 37.1175 27.8866 36.2963 26.9884C35.9993 26.6699 35.2954 25.8499 34.3197 25.6449C30.8656 24.9074 24.4696 25.0166 24.4696 25.0166L22.0104 24.6051L17.1099 29.1859C17.7855 29.9012 18.6335 30.5251 19.8735 31.1666C21.1135 31.8082 22.4544 32.2742 24.2632 32.1223C27.8836 31.8185 30.0547 30.8023 31.9927 30.3525C32.554 30.2227 33.1361 30.1033 33.5772 31.0177C34.0182 31.9321 34.0539 32.3907 35.3592 33.3627C37.0328 34.6104 39.7964 36.0056 41.0023 37.4922C41.2009 37.8566 41.3193 38.2588 41.3498 38.6721C41.4641 40.2398 42.7887 39.9316 43.8565 40.6129C44.4386 40.9846 44.8707 41.4359 45.5717 41.5893C46.2099 41.7197 46.8693 41.7076 47.5022 41.5539C48.0724 41.4197 48.8892 41.0111 49.1699 40.4596C49.5381 39.7251 48.4155 39.4832 47.8571 39.2664Z" fill="#FFEDE5"/>
<path d="M47.8571 39.2664C45.9177 38.5098 44.3302 37.209 42.9566 35.7548C41.8517 34.2653 37.1175 27.8866 36.2963 26.9884C35.9993 26.6699 35.2954 25.8499 34.3197 25.6449C30.8656 24.9074 24.4696 25.0166 24.4696 25.0166L22.0104 24.6051L17.1099 29.1859C17.7855 29.9012 18.6335 30.5251 19.8735 31.1666C21.1135 31.8082 22.4544 32.2742 24.2632 32.1223C27.8836 31.8185 30.0547 30.8023 31.9927 30.3525C32.554 30.2227 33.1361 30.1033 33.5772 31.0177C34.0182 31.9321 34.0539 32.3907 35.3592 33.3627C37.0328 34.6104 39.7964 36.0056 41.0023 37.4922C41.2009 37.8566 41.3193 38.2588 41.3498 38.6721C41.4641 40.2398 42.7887 39.9316 43.8565 40.6129C44.4386 40.9846 44.8707 41.4359 45.5717 41.5893C46.2099 41.7197 46.8693 41.7076 47.5022 41.5539C48.0724 41.4197 48.8892 41.0111 49.1699 40.4596C49.5381 39.7251 48.4155 39.4832 47.8571 39.2664Z" fill="#FFEDE5"/>
<path d="M35.2477 32.6194C34.8801 32.2146 34.6009 31.7386 34.428 31.2212C34.2951 30.7888 34.1242 30.3688 33.9171 29.9661C33.3142 28.9338 29.3136 30.2508 27.542 30.7906C27.4425 30.9381 27.0267 31.3805 26.8782 31.7492C29.024 31.3141 30.5684 30.6814 31.9896 30.3511C32.5509 30.2213 33.1331 30.1018 33.5741 31.0162C34.0152 31.9306 34.0508 32.3893 35.3561 33.3612C36.0363 33.8686 36.8961 34.3936 37.7589 34.9526C36.7951 34.2092 36.0689 33.4645 35.2477 32.6194Z" fill="#F28F8F"/>
<path d="M22.3904 24.6051C22.3904 24.6051 25.9054 24.7762 26.5024 24.819C26.5024 24.819 25.1792 25.1729 26.789 28.4043C28.3987 31.6356 30.3218 31.6179 30.3218 31.6179C27.7973 32.4202 26.486 33.3214 23.268 32.9453C19.4322 32.3952 17.1067 29.5428 17.1067 29.5428L22.3904 24.6051Z" fill="#455A64"/>
<path opacity="0.15" d="M30.3129 31.618C30.2837 31.6198 30.2545 31.6198 30.2253 31.618C29.9387 31.5855 29.0863 31.3997 28.1314 30.3894C27.3735 30.5902 26.6044 30.7473 25.8282 30.8599C22.9591 31.2773 20.8073 30.7744 17.6012 29.0768L17.1067 29.5399C18.3791 30.965 20.0113 32.027 21.835 32.6164C21.9464 32.6504 22.0607 32.6843 22.1765 32.7153C22.2849 32.7433 22.3948 32.7713 22.5047 32.7964L22.5344 32.8037C22.6354 32.8273 22.7393 32.848 22.8433 32.8686L22.8982 32.879C23.02 32.9026 23.1418 32.9232 23.2665 32.9409C23.4685 32.9645 23.6615 32.9822 23.8487 32.997C24.0358 33.0117 24.2155 33.0191 24.3907 33.025H24.6476C24.7322 33.025 24.8154 33.025 24.8971 33.025C25.1421 33.025 25.3752 33.0058 25.5995 32.9837C25.748 32.9689 25.8935 32.9512 26.0361 32.9306C26.3794 32.8789 26.7195 32.808 27.0548 32.7182C27.1855 32.6828 27.3147 32.6459 27.4424 32.6061C27.7646 32.5088 28.0824 32.3996 28.4091 32.2817L28.8056 32.1342C29.2749 31.9631 29.7679 31.7832 30.3203 31.6077L30.3129 31.618Z" fill="black"/>
<path d="M10.6366 20.2057C9.20804 20.6983 7.85816 21.5596 9.00311 24.0801C10.6366 27.72 18.0409 31.7611 21.8426 32.6194C19.912 29.7184 21.5188 26.6434 22.7796 24.6243L22.4395 22.1584C22.4395 22.1584 21.299 21.6142 19.4101 20.1644C17.5212 18.7147 16.7371 18.3209 13.9259 19.1704C11.9939 19.7544 10.6366 20.2057 10.6366 20.2057Z" fill="url(#paint2_linear_810_4176)"/>
<path opacity="0.05" d="M16.4238 28.4322C12.536 26.2199 11.3138 24.2496 9.7887 22.3574L8.79077 23.5667C8.8175 23.6449 8.8472 23.7245 8.87987 23.8071C8.87931 23.8115 8.87931 23.816 8.87987 23.8204C8.91254 23.9045 8.94967 23.9915 8.98976 24.08C9.71445 25.6728 11.5336 27.3423 13.672 28.795C13.969 29.0015 14.2898 29.2035 14.6046 29.3997C14.7635 29.4985 14.9224 29.5958 15.0828 29.6947C16.1703 30.3413 17.296 30.9225 18.4538 31.435C19.54 31.933 20.6712 32.328 21.8322 32.6148C21.4093 31.9907 21.1267 31.2835 21.0035 30.5412C19.6522 30.1371 18.2028 29.4454 16.4238 28.4322Z" fill="black"/>
<path d="M9.5644 20.6996C9.5644 20.6996 4.76928 18.1541 4.01044 17.8104L8.20709 15.3637L7.31608 13.0674C7.31608 13.0674 1.07902 15.2693 -0.108991 15.902C-0.731212 16.2368 -1 16.5126 -1 16.9875C-1 17.7795 -0.241157 18.806 0.810233 19.6953C3.04518 21.5875 6.07758 23.3499 9.03128 24.9604C9.70844 25.4589 10.4123 26.0857 10.4123 26.0857C11.189 26.4721 12.3191 22.906 9.5644 20.6996Z" fill="#FFEDE5"/>
<path d="M14.0535 11.8523C13.754 11.1617 13.1905 10.6176 12.4871 10.3396C11.7836 10.0617 10.9977 10.0726 10.3024 10.3701C9.60706 10.6676 9.05918 11.2272 8.77929 11.9258C8.49941 12.6245 8.51044 13.4049 8.80996 14.0955C8.82927 14.1427 8.85303 14.1855 8.8753 14.2297L8.15061 15.796L7.07992 13.8359C7.08036 13.6816 7.023 13.5325 6.91899 13.4178C6.81498 13.303 6.67174 13.2308 6.5171 13.215C6.43867 13.2084 6.3597 13.2177 6.28499 13.2423C6.21028 13.2669 6.14138 13.3063 6.08249 13.3582C6.0236 13.41 5.97594 13.4732 5.94242 13.544C5.90889 13.6147 5.89019 13.6915 5.88745 13.7696L6.70569 13.8404C6.52614 13.9587 6.3885 14.1299 6.31217 14.33C6.11763 14.8344 6.79479 15.8624 7.70214 16.765C7.70214 16.765 8.98668 18.5657 9.29853 18.8179C9.49947 18.9698 9.75136 19.0395 10.0024 19.0126L10.0796 15.473C10.6012 15.7526 11.1975 15.8639 11.7857 15.7914C12.3739 15.7189 12.9248 15.4663 13.3618 15.0687C13.7988 14.671 14.1002 14.148 14.2242 13.5724C14.3481 12.9968 14.2885 12.3971 14.0535 11.8567V11.8523Z" fill="#263238"/>
<path d="M8.78166 16.4063C8.66285 16.57 8.30051 16.362 8.0139 16.2411C7.7273 16.1202 6.95954 16.1157 6.92984 16.9284C6.90014 17.741 7.9055 18.4032 8.48317 18.3427C9.47813 18.241 9.37418 17.626 9.37418 17.626L10.8354 20.8396C12.5269 21.7599 15.6751 20.3116 13.7862 19.4017L13.3689 18.4474C13.7299 18.3511 14.0787 18.214 14.4084 18.0389C15.0024 17.6643 15.1969 16.9859 15.0915 16.2086C14.9237 14.9624 14.646 14.0126 13.4372 11.9316C12.1007 9.65744 9.27914 10.8344 8.17725 12.4316C7.07537 14.0288 8.78166 16.4063 8.78166 16.4063Z" fill="#FFEDE5"/>
<path d="M8.89905 16.6793C8.81885 16.7162 8.29167 16.3416 8.00804 16.2457C7.62342 16.1145 6.99823 13.6972 6.99823 13.6972C6.99823 13.6972 6.48738 13.2474 6.76805 12.4362C6.99823 11.7711 7.84765 11.3257 8.43572 11.0307C9.49602 10.4983 10.6825 9.89214 11.2023 8.77717C11.2439 8.68868 11.3033 8.58839 11.4013 8.58691C11.4317 8.58961 11.4613 8.5983 11.4884 8.61248C11.5154 8.62666 11.5393 8.64605 11.5587 8.6695C11.8035 8.94247 11.9416 9.29362 11.9478 9.65912C11.9478 9.69304 11.9582 9.73581 11.9923 9.74613C12.0265 9.75646 12.0517 9.72843 12.0725 9.70336C12.1804 9.57221 12.2625 9.42213 12.3146 9.26091C12.3859 9.04116 12.7601 9.60012 12.7868 9.67682C12.8744 9.91945 12.9121 10.177 12.8978 10.4344C12.8836 10.6917 12.8175 10.9436 12.7037 11.1752C12.472 11.6369 11.9953 11.923 11.5587 12.1752C10.586 12.7386 8.92281 13.2754 8.69114 13.3388C8.37632 13.4258 8.43721 13.74 8.61541 14.591C8.77876 15.3431 9.16783 16.554 8.89905 16.6793Z" fill="#263238"/>
<path d="M13.369 18.4475C13.369 18.4475 11.6315 18.8118 11.0137 18.766C10.6513 18.7399 10.3054 18.6052 10.0217 18.3796C10.2234 18.6396 10.4759 18.8564 10.7642 19.0168C11.3345 19.3265 13.5323 18.8324 13.5323 18.8324L13.369 18.4475Z" fill="#F28F8F"/>
<path d="M10.6545 13.9567L10.1377 14.5171C10.0633 14.4452 10.0197 14.3475 10.0161 14.2445C10.0125 14.1414 10.0492 14.0409 10.1184 13.9641C10.1528 13.928 10.1941 13.8992 10.2398 13.8793C10.2856 13.8594 10.3349 13.8487 10.3849 13.8481C10.4349 13.8474 10.4845 13.8566 10.5308 13.8753C10.5771 13.8939 10.6192 13.9216 10.6545 13.9567Z" fill="#263238"/>
<path d="M12.3191 16.8195L13.0839 16.7841C13.0885 16.8341 13.083 16.8845 13.0676 16.9323C13.0522 16.9801 13.0273 17.0243 12.9943 17.0623C12.9613 17.1003 12.9209 17.1313 12.8756 17.1534C12.8303 17.1756 12.7809 17.1884 12.7304 17.1912C12.6268 17.1941 12.526 17.157 12.4493 17.0877C12.3726 17.0184 12.326 16.9223 12.3191 16.8195Z" fill="#F28F8F"/>
<path d="M13.7999 13.0675L13.0574 12.8787C13.0675 12.8296 13.0875 12.783 13.1163 12.7419C13.145 12.7007 13.1819 12.6657 13.2247 12.6391C13.2674 12.6125 13.3152 12.5948 13.3651 12.587C13.4149 12.5793 13.4659 12.5817 13.5148 12.5941C13.614 12.6221 13.6988 12.6867 13.7518 12.7747C13.8048 12.8626 13.822 12.9674 13.7999 13.0675Z" fill="#263238"/>
<path d="M12.2151 14.222L12.7215 16.0317L13.6125 15.4948L12.2151 14.222Z" fill="#F28F8F"/>
<path d="M10.8059 15.0334C10.8062 15.0987 10.826 15.1624 10.8627 15.2165C10.8994 15.2706 10.9515 15.3128 11.0123 15.3375C11.0731 15.3623 11.1399 15.3686 11.2044 15.3557C11.2688 15.3428 11.3279 15.3112 11.3743 15.265C11.4207 15.2187 11.4522 15.1599 11.4649 15.0958C11.4776 15.0318 11.471 14.9654 11.4457 14.9051C11.4205 14.8449 11.3779 14.7933 11.3232 14.7571C11.2685 14.7209 11.2043 14.7015 11.1386 14.7015C11.0947 14.7015 11.0514 14.7101 11.0109 14.7268C10.9705 14.7435 10.9337 14.768 10.9028 14.7988C10.8719 14.8297 10.8474 14.8662 10.8308 14.9065C10.8142 14.9468 10.8057 14.9899 10.8059 15.0334Z" fill="#263238"/>
<path d="M13.2131 14.0968C13.2128 14.1602 13.2315 14.2223 13.2668 14.2751C13.3021 14.328 13.3524 14.3692 13.4114 14.3936C13.4703 14.418 13.5352 14.4245 13.5979 14.4122C13.6605 14.3999 13.7181 14.3694 13.7632 14.3245C13.8084 14.2797 13.8391 14.2225 13.8515 14.1603C13.8639 14.0981 13.8574 14.0336 13.8328 13.9751C13.8082 13.9165 13.7667 13.8666 13.7135 13.8315C13.6603 13.7965 13.5978 13.7779 13.5339 13.7782C13.449 13.7786 13.3676 13.8123 13.3075 13.8719C13.2474 13.9316 13.2135 14.0124 13.2131 14.0968Z" fill="#263238"/>
<path d="M41.1566 39.001C41.0304 39.0865 41.2264 39.6263 41.3407 39.759C41.5789 39.989 41.8732 40.1536 42.1946 40.2369C42.7793 40.4147 43.3256 40.6988 43.8059 41.0746C44.3982 41.5509 45.0871 41.8945 45.8255 42.0819C46.7016 42.2751 47.7144 42.0288 48.598 41.5082C49.5247 40.964 49.4385 40.4419 49.3123 40.0938L41.1566 39.001Z" fill="#37474F"/>
<path d="M43.1612 35.9716C43.4582 36.2842 45.0739 37.8711 46.3139 38.2752C47.3014 38.5968 48.586 38.9035 49.1488 39.5008C49.7339 40.1232 48.8622 40.9196 47.6638 41.3768C46.4134 41.8517 45.564 41.4683 44.7338 41.0538C44.1502 40.7589 43.2904 40.1689 42.8583 39.9315C42.4261 39.694 41.6257 39.5643 41.2916 39.2118C41.1074 39.0171 40.9753 38.4744 40.8951 37.998C40.8223 37.5555 40.5283 37.1558 40.6783 37.1323L40.9218 37.3962C42.0504 37.6027 43.2266 36.5674 43.1612 35.9716Z" fill="url(#paint3_linear_810_4176)"/>
<path d="M4.01041 17.8105C3.29875 18.1924 2.53022 18.4587 1.73389 18.5996C1.73389 18.5996 2.99466 18.9137 4.49453 18.0509L4.01041 17.8105Z" fill="#F28F8F"/>
</g>
</g>
<defs>
<linearGradient id="paint0_linear_810_4176" x1="50" y1="50" x2="-16.6397" y2="44.8434" gradientUnits="userSpaceOnUse">
<stop stop-color="#92A3FD"/>
<stop offset="1" stop-color="#9DCEFF"/>
</linearGradient>
<linearGradient id="paint1_linear_810_4176" x1="38.439" y1="22.2852" x2="31.0392" y2="21.8815" gradientUnits="userSpaceOnUse">
<stop stop-color="#92A3FD"/>
<stop offset="1" stop-color="#9DCEFF"/>
</linearGradient>
<linearGradient id="paint2_linear_810_4176" x1="22.7796" y1="32.6194" x2="3.85094" y2="31.1216" gradientUnits="userSpaceOnUse">
<stop stop-color="#92A3FD"/>
<stop offset="1" stop-color="#9DCEFF"/>
</linearGradient>
<linearGradient id="paint3_linear_810_4176" x1="49.3355" y1="41.5963" x2="37.8365" y2="40.2201" gradientUnits="userSpaceOnUse">
<stop stop-color="#92A3FD"/>
<stop offset="1" stop-color="#9DCEFF"/>
</linearGradient>
<clipPath id="clip0_810_4176">
<rect width="50.3895" height="34.1483" fill="white" transform="translate(-1 8)"/>
</clipPath>
</defs>
</svg>
